<svg xmlns="http://www.w3.org/2000/svg" viewBox="0 0 640 320" role="img" aria-label="2330 台積電 日K"><title>2330 台積電 日K</title><rect width="640" height="320" fill="#ffffff"/><text x="48" y="22" font-size="14" font-weight="bold" fill="#212121">2330 台積電 — 日 K（近 30 個交易日，TWSE）</text><line x1="48" y1="280" x2="624" y2="280" stroke="#dddddd"/><line x1="48" y1="280.0" x2="624" y2="280.0" stroke="#eeeeee"/><text x="42" y="284.0" font-size="10" text-anchor="end" fill="#666666">2185</text><line x1="48" y1="219.0" x2="624" y2="219.0" stroke="#eeeeee"/><text x="42" y="223.0" font-size="10" text-anchor="end" fill="#666666">2249</text><line x1="48" y1="158.0" x2="624" y2="158.0" stroke="#eeeeee"/><text x="42" y="162.0" font-size="10" text-anchor="end" fill="#666666">2312</text><line x1="48" y1="97.0" x2="624" y2="97.0" stroke="#eeeeee"/><text x="42" y="101.0" font-size="10" text-anchor="end" fill="#666666">2376</text><line x1="48" y1="36.0" x2="624" y2="36.0" stroke="#eeeeee"/><text x="42" y="40.0" font-size="10" text-anchor="end" fill="#666666">2440</text><line x1="57.6" y1="98.2" x2="57.6" y2="141.3" stroke="#e53935" stroke-width="1"/><rect x="52.3" y="117.3" width="10.6" height="14.4" fill="#e53935"/><line x1="76.8" y1="112.5" x2="76.8" y2="198.7" stroke="#212121" stroke-width="1"/><rect x="71.5" y="122.1" width="10.6" height="52.6" fill="#212121"/><line x1="96.0" y1="141.3" x2="96.0" y2="179.5" stroke="#212121" stroke-width="1"/><rect x="90.7" y="160.4" width="10.6" height="9.6" fill="#212121"/><line x1="115.2" y1="146.0" x2="115.2" y2="198.7" stroke="#212121" stroke-width="1"/><rect x="109.9" y="150.8" width="10.6" height="47.8" fill="#212121"/><line x1="134.4" y1="160.4" x2="134.4" y2="193.9" stroke="#e53935" stroke-width="1"/><rect x="129.1" y="160.4" width="10.6" height="33.5" fill="#e53935"/><line x1="153.6" y1="208.2" x2="153.6" y2="241.7" stroke="#e53935" stroke-width="1"/><rect x="148.3" y="213.0" width="10.6" height="9.6" fill="#e53935"/><line x1="172.8" y1="213.0" x2="172.8" y2="236.9" stroke="#212121" stroke-width="1"/><rect x="167.5" y="227.4" width="10.6" height="9.6" fill="#212121"/><line x1="192.0" y1="256.1" x2="192.0" y2="280.0" stroke="#212121" stroke-width="1"/><rect x="186.7" y="260.9" width="10.6" height="19.1" fill="#212121"/><line x1="211.2" y1="236.9" x2="211.2" y2="260.9" stroke="#212121" stroke-width="1"/><rect x="205.9" y="246.5" width="10.6" height="14.4" fill="#212121"/><line x1="230.4" y1="208.2" x2="230.4" y2="251.3" stroke="#e53935" stroke-width="1"/><rect x="225.1" y="227.4" width="10.6" height="14.4" fill="#e53935"/><line x1="249.6" y1="146.0" x2="249.6" y2="217.8" stroke="#212121" stroke-width="1"/><rect x="244.3" y="160.4" width="10.6" height="43.1" fill="#212121"/><line x1="268.8" y1="198.7" x2="268.8" y2="236.9" stroke="#e53935" stroke-width="1"/><rect x="263.5" y="198.7" width="10.6" height="19.1" fill="#e53935"/><line x1="288.0" y1="227.4" x2="288.0" y2="260.9" stroke="#e53935" stroke-width="1"/><rect x="282.7" y="246.5" width="10.6" height="14.4" fill="#e53935"/><line x1="307.2" y1="189.1" x2="307.2" y2="256.1" stroke="#e53935" stroke-width="1"/><rect x="301.9" y="213.0" width="10.6" height="19.1" fill="#e53935"/><line x1="326.4" y1="193.9" x2="326.4" y2="232.2" stroke="#212121" stroke-width="1"/><rect x="321.1" y="203.5" width="10.6" height="28.7" fill="#212121"/><line x1="345.6" y1="160.4" x2="345.6" y2="203.5" stroke="#212121" stroke-width="1"/><rect x="340.3" y="170.0" width="10.6" height="9.6" fill="#212121"/><line x1="364.8" y1="126.9" x2="364.8" y2="160.4" stroke="#212121" stroke-width="1"/><rect x="359.5" y="136.5" width="10.6" height="23.9" fill="#212121"/><line x1="384.0" y1="184.3" x2="384.0" y2="227.4" stroke="#e53935" stroke-width="1"/><rect x="378.7" y="217.8" width="10.6" height="1.0" fill="#e53935"/><line x1="403.2" y1="198.7" x2="403.2" y2="227.4" stroke="#e53935" stroke-width="1"/><rect x="397.9" y="217.8" width="10.6" height="1.0" fill="#e53935"/><line x1="422.4" y1="184.3" x2="422.4" y2="270.4" stroke="#e53935" stroke-width="1"/><rect x="417.1" y="193.9" width="10.6" height="71.8" fill="#e53935"/><line x1="441.6" y1="146.0" x2="441.6" y2="179.5" stroke="#212121" stroke-width="1"/><rect x="436.3" y="146.0" width="10.6" height="14.4" fill="#212121"/><line x1="460.8" y1="208.2" x2="460.8" y2="256.1" stroke="#e53935" stroke-width="1"/><rect x="455.5" y="217.8" width="10.6" height="9.6" fill="#e53935"/><line x1="480.0" y1="170.0" x2="480.0" y2="213.0" stroke="#212121" stroke-width="1"/><rect x="474.7" y="184.3" width="10.6" height="28.7" fill="#212121"/><line x1="499.2" y1="150.8" x2="499.2" y2="174.7" stroke="#e53935" stroke-width="1"/><rect x="493.9" y="165.2" width="10.6" height="1.0" fill="#e53935"/><line x1="518.4" y1="150.8" x2="518.4" y2="236.9" stroke="#e53935" stroke-width="1"/><rect x="513.1" y="174.7" width="10.6" height="62.2" fill="#e53935"/><line x1="537.6" y1="69.5" x2="537.6" y2="122.1" stroke="#212121" stroke-width="1"/><rect x="532.3" y="79.1" width="10.6" height="28.7" fill="#212121"/><line x1="556.8" y1="59.9" x2="556.8" y2="88.6" stroke="#e53935" stroke-width="1"/><rect x="551.5" y="88.6" width="10.6" height="1.0" fill="#e53935"/><line x1="576.0" y1="36.0" x2="576.0" y2="64.7" stroke="#e53935" stroke-width="1"/><rect x="570.7" y="50.4" width="10.6" height="1.0" fill="#e53935"/><line x1="595.2" y1="74.3" x2="595.2" y2="112.5" stroke="#212121" stroke-width="1"/><rect x="589.9" y="83.8" width="10.6" height="9.6" fill="#212121"/><line x1="614.4" y1="59.9" x2="614.4" y2="122.1" stroke="#e53935" stroke-width="1"/><rect x="609.1" y="117.3" width="10.6" height="1.0" fill="#e53935"/><text x="624" y="22" font-size="12" text-anchor="end" fill="#00897b">收 2355.00  (-25.00, -1.05%)</text><text x="48" y="312" font-size="10" fill="#666666">資料：TWSE 日行情 · 教學用 · 非即時</text></svg>