<svg xmlns="http://www.w3.org/2000/svg" viewBox="0 0 720 420" role="img" aria-label="2330 報價畫面示意"><title>2330 報價畫面示意</title><rect width="720" height="420" fill="#fafafa"/><rect x="0" y="0" width="720" height="72" fill="#ffffff" stroke="#dddddd"/><text x="16" y="28" font-size="18" font-weight="bold" fill="#212121">2330 台積電</text><text x="16" y="58" font-size="28" font-weight="bold" fill="#00897b">2355.00</text><text x="130" y="58" font-size="16" fill="#00897b">-25.00 (-1.05%)</text><text x="320" y="32" font-size="11" fill="#666666">開 2355.00</text><text x="320" y="50" font-size="11" fill="#666666">高 2415.00</text><text x="400" y="32" font-size="11" fill="#666666">低 2350.00</text><text x="400" y="50" font-size="11" fill="#666666">昨收 2380.00</text><text x="480" y="32" font-size="11" fill="#666666">單量 —</text><text x="480" y="50" font-size="11" fill="#666666">總量 60,942 張</text><rect x="12" y="84" width="460" height="220" fill="#ffffff" stroke="#dddddd"/><text x="24" y="108" font-size="12" fill="#666666">圖表區（可切換 分時 / 日K / 量價）</text><text x="24" y="128" font-size="10" fill="#666666">→ 見本頁下方 2330 範例圖</text><rect x="488" y="84" width="220" height="220" fill="#ffffff" stroke="#dddddd"/><text x="500" y="104" font-size="12" font-weight="bold" fill="#212121">五檔報價（示意）</text><text x="500" y="124" font-size="10" fill="#666666">委賣</text><text x="620" y="124" font-size="10" fill="#666666">張數</text><text x="500" y="142" font-size="11" fill="#00897b">2366.78</text><text x="620" y="142" font-size="11" fill="#666666">293</text><text x="500" y="160" font-size="11" fill="#00897b">2364.42</text><text x="620" y="160" font-size="11" fill="#666666">252</text><text x="500" y="178" font-size="11" fill="#00897b">2362.07</text><text x="620" y="178" font-size="11" fill="#666666">211</text><text x="500" y="196" font-size="11" fill="#00897b">2359.71</text><text x="620" y="196" font-size="11" fill="#666666">170</text><text x="500" y="214" font-size="11" fill="#00897b">2357.36</text><text x="620" y="214" font-size="11" fill="#666666">129</text><line x1="492" y1="224" x2="704" y2="224" stroke="#dddddd"/><text x="500" y="242" font-size="10" fill="#666666">委買</text><text x="500" y="260" font-size="11" fill="#e53935">2352.64</text><text x="620" y="260" font-size="11" fill="#666666">137</text><text x="500" y="278" font-size="11" fill="#e53935">2350.29</text><text x="620" y="278" font-size="11" fill="#666666">174</text><text x="500" y="296" font-size="11" fill="#e53935">2347.93</text><text x="620" y="296" font-size="11" fill="#666666">211</text><text x="500" y="314" font-size="11" fill="#e53935">2345.58</text><text x="620" y="314" font-size="11" fill="#666666">248</text><text x="500" y="332" font-size="11" fill="#e53935">2343.22</text><text x="620" y="332" font-size="11" fill="#666666">285</text><rect x="12" y="312" width="696" height="96" fill="#ffffff" stroke="#dddddd"/><text x="24" y="332" font-size="12" font-weight="bold" fill="#212121">分時成交明細（Tick，示意）</text><text x="24" y="352" font-size="10" fill="#666666">13:24:05</text><text x="100" y="352" font-size="10" fill="#212121">2355.00</text><text x="160" y="352" font-size="10" fill="#666666">2</text><text x="190" y="352" font-size="10" fill="#e53935">外</text><text x="24" y="366" font-size="10" fill="#666666">13:23:58</text><text x="100" y="366" font-size="10" fill="#212121">2352.64</text><text x="160" y="366" font-size="10" fill="#666666">1</text><text x="190" y="366" font-size="10" fill="#00897b">內</text><text x="24" y="380" font-size="10" fill="#666666">13:23:41</text><text x="100" y="380" font-size="10" fill="#212121">2352.64</text><text x="160" y="380" font-size="10" fill="#666666">3</text><text x="190" y="380" font-size="10" fill="#e53935">外</text><text x="24" y="394" font-size="10" fill="#666666">13:23:12</text><text x="100" y="394" font-size="10" fill="#212121">2350.29</text><text x="160" y="394" font-size="10" fill="#666666">1</text><text x="190" y="394" font-size="10" fill="#00897b">內</text></svg>