<svg xmlns="http://www.w3.org/2000/svg" viewBox="0 0 640 120" role="img" aria-label="2330 量柱"><title>2330 量柱</title><rect width="640" height="120" fill="#ffffff"/><text x="48" y="16" font-size="12" font-weight="bold" fill="#212121">2330 成交量（近 30 日）</text><rect x="51.8" y="24.0" width="11.5" height="72.0" fill="#e53935" opacity="0.85"/><rect x="71.0" y="66.9" width="11.5" height="29.1" fill="#212121" opacity="0.85"/><rect x="90.2" y="68.3" width="11.5" height="27.7" fill="#212121" opacity="0.85"/><rect x="109.4" y="73.5" width="11.5" height="22.5" fill="#212121" opacity="0.85"/><rect x="128.6" y="76.6" width="11.5" height="19.4" fill="#e53935" opacity="0.85"/><rect x="147.8" y="77.6" width="11.5" height="18.4" fill="#e53935" opacity="0.85"/><rect x="167.0" y="78.9" width="11.5" height="17.1" fill="#212121" opacity="0.85"/><rect x="186.2" y="69.7" width="11.5" height="26.3" fill="#212121" opacity="0.85"/><rect x="205.4" y="64.7" width="11.5" height="31.3" fill="#212121" opacity="0.85"/><rect x="224.6" y="73.3" width="11.5" height="22.7" fill="#e53935" opacity="0.85"/><rect x="243.8" y="72.4" width="11.5" height="23.6" fill="#212121" opacity="0.85"/><rect x="263.0" y="68.8" width="11.5" height="27.2" fill="#e53935" opacity="0.85"/><rect x="282.2" y="66.0" width="11.5" height="30.0" fill="#e53935" opacity="0.85"/><rect x="301.4" y="58.7" width="11.5" height="37.3" fill="#e53935" opacity="0.85"/><rect x="320.6" y="64.3" width="11.5" height="31.7" fill="#212121" opacity="0.85"/><rect x="339.8" y="74.2" width="11.5" height="21.8" fill="#212121" opacity="0.85"/><rect x="359.0" y="67.2" width="11.5" height="28.8" fill="#212121" opacity="0.85"/><rect x="378.2" y="69.9" width="11.5" height="26.1" fill="#e53935" opacity="0.85"/><rect x="397.4" y="77.7" width="11.5" height="18.3" fill="#e53935" opacity="0.85"/><rect x="416.6" y="65.5" width="11.5" height="30.5" fill="#e53935" opacity="0.85"/><rect x="435.8" y="77.9" width="11.5" height="18.1" fill="#212121" opacity="0.85"/><rect x="455.0" y="64.1" width="11.5" height="31.9" fill="#e53935" opacity="0.85"/><rect x="474.2" y="58.8" width="11.5" height="37.2" fill="#212121" opacity="0.85"/><rect x="493.4" y="69.3" width="11.5" height="26.7" fill="#e53935" opacity="0.85"/><rect x="512.6" y="60.1" width="11.5" height="35.9" fill="#e53935" opacity="0.85"/><rect x="531.8" y="66.2" width="11.5" height="29.8" fill="#212121" opacity="0.85"/><rect x="551.0" y="73.6" width="11.5" height="22.4" fill="#e53935" opacity="0.85"/><rect x="570.2" y="75.9" width="11.5" height="20.1" fill="#e53935" opacity="0.85"/><rect x="589.4" y="67.5" width="11.5" height="28.5" fill="#212121" opacity="0.85"/><rect x="608.6" y="54.1" width="11.5" height="41.9" fill="#e53935" opacity="0.85"/><line x1="48" y1="96" x2="624" y2="96" stroke="#dddddd"/></svg>