<svg xmlns="http://www.w3.org/2000/svg" viewBox="0 0 640 360" role="img" aria-label="0050 大盤"><title>0050 大盤</title><rect width="640" height="100%" fill="#ffffff"/><text x="48" y="22" font-size="14" font-weight="bold" fill="#212121">0050 元大台灣50 — 大盤代理走勢</text><text x="48" y="38" font-size="10" fill="#666666">加權指數常用類似日 K 閱讀</text><line x1="55.2" y1="233.8" x2="55.2" y2="241.7" stroke="#e53935" stroke-width="1"/><rect x="51.2" y="234.6" width="7.9" height="2.1" fill="#e53935"/><line x1="69.6" y1="233.8" x2="69.6" y2="244.6" stroke="#e53935" stroke-width="1"/><rect x="65.6" y="241.7" width="7.9" height="1.0" fill="#e53935"/><line x1="84.0" y1="249.6" x2="84.0" y2="261.7" stroke="#e53935" stroke-width="1"/><rect x="80.0" y="250.4" width="7.9" height="11.3" fill="#e53935"/><line x1="98.4" y1="267.9" x2="98.4" y2="273.0" stroke="#e53935" stroke-width="1"/><rect x="94.4" y="271.3" width="7.9" height="1.0" fill="#e53935"/><line x1="112.8" y1="269.6" x2="112.8" y2="276.7" stroke="#e53935" stroke-width="1"/><rect x="108.8" y="270.0" width="7.9" height="6.3" fill="#e53935"/><line x1="127.2" y1="281.3" x2="127.2" y2="286.3" stroke="#212121" stroke-width="1"/><rect x="123.2" y="282.1" width="7.9" height="1.3" fill="#212121"/><line x1="141.6" y1="282.5" x2="141.6" y2="292.1" stroke="#e53935" stroke-width="1"/><rect x="137.6" y="283.0" width="7.9" height="9.2" fill="#e53935"/><line x1="156.0" y1="314.2" x2="156.0" y2="320.9" stroke="#e53935" stroke-width="1"/><rect x="152.0" y="315.5" width="7.9" height="1.3" fill="#e53935"/><line x1="170.4" y1="309.2" x2="170.4" y2="328.0" stroke="#212121" stroke-width="1"/><rect x="166.4" y="310.5" width="7.9" height="16.3" fill="#212121"/><line x1="184.8" y1="313.0" x2="184.8" y2="321.3" stroke="#e53935" stroke-width="1"/><rect x="180.8" y="314.2" width="7.9" height="3.8" fill="#e53935"/><line x1="199.2" y1="64.4" x2="199.2" y2="87.0" stroke="#e53935" stroke-width="1"/><rect x="195.2" y="64.4" width="7.9" height="18.3" fill="#e53935"/><line x1="213.6" y1="74.0" x2="213.6" y2="108.6" stroke="#212121" stroke-width="1"/><rect x="209.6" y="76.1" width="7.9" height="29.2" fill="#212121"/><line x1="228.0" y1="76.9" x2="228.0" y2="92.8" stroke="#e53935" stroke-width="1"/><rect x="224.0" y="88.2" width="7.9" height="1.3" fill="#e53935"/><line x1="242.4" y1="94.5" x2="242.4" y2="108.6" stroke="#212121" stroke-width="1"/><rect x="238.4" y="96.1" width="7.9" height="12.5" fill="#212121"/><line x1="256.8" y1="101.1" x2="256.8" y2="113.2" stroke="#e53935" stroke-width="1"/><rect x="252.8" y="102.8" width="7.9" height="10.4" fill="#e53935"/><line x1="271.2" y1="132.0" x2="271.2" y2="142.8" stroke="#e53935" stroke-width="1"/><rect x="267.2" y="132.0" width="7.9" height="8.3" fill="#e53935"/><line x1="285.6" y1="142.4" x2="285.6" y2="153.7" stroke="#e53935" stroke-width="1"/><rect x="281.6" y="144.1" width="7.9" height="8.8" fill="#e53935"/><line x1="300.0" y1="163.7" x2="300.0" y2="172.4" stroke="#212121" stroke-width="1"/><rect x="296.0" y="167.9" width="7.9" height="4.2" fill="#212121"/><line x1="314.4" y1="153.7" x2="314.4" y2="167.0" stroke="#212121" stroke-width="1"/><rect x="310.4" y="156.6" width="7.9" height="10.4" fill="#212121"/><line x1="328.8" y1="149.5" x2="328.8" y2="165.4" stroke="#e53935" stroke-width="1"/><rect x="324.8" y="152.0" width="7.9" height="7.5" fill="#e53935"/><line x1="343.2" y1="124.1" x2="343.2" y2="149.5" stroke="#212121" stroke-width="1"/><rect x="339.2" y="129.1" width="7.9" height="18.8" fill="#212121"/><line x1="357.6" y1="132.8" x2="357.6" y2="144.9" stroke="#212121" stroke-width="1"/><rect x="353.6" y="135.3" width="7.9" height="7.1" fill="#212121"/><line x1="372.0" y1="144.5" x2="372.0" y2="153.7" stroke="#e53935" stroke-width="1"/><rect x="368.0" y="147.0" width="7.9" height="5.4" fill="#e53935"/><line x1="386.4" y1="131.6" x2="386.4" y2="147.0" stroke="#e53935" stroke-width="1"/><rect x="382.4" y="135.7" width="7.9" height="1.0" fill="#e53935"/><line x1="400.8" y1="133.2" x2="400.8" y2="138.7" stroke="#e53935" stroke-width="1"/><rect x="396.8" y="135.3" width="7.9" height="2.1" fill="#e53935"/><line x1="415.2" y1="128.7" x2="415.2" y2="144.1" stroke="#212121" stroke-width="1"/><rect x="411.2" y="131.6" width="7.9" height="2.9" fill="#212121"/><line x1="429.6" y1="122.8" x2="429.6" y2="131.2" stroke="#212121" stroke-width="1"/><rect x="425.6" y="126.6" width="7.9" height="2.1" fill="#212121"/><line x1="444.0" y1="135.3" x2="444.0" y2="153.7" stroke="#212121" stroke-width="1"/><rect x="440.0" y="142.4" width="7.9" height="2.5" fill="#212121"/><line x1="458.4" y1="153.3" x2="458.4" y2="159.5" stroke="#e53935" stroke-width="1"/><rect x="454.4" y="154.5" width="7.9" height="1.7" fill="#e53935"/><line x1="472.8" y1="154.1" x2="472.8" y2="172.9" stroke="#e53935" stroke-width="1"/><rect x="468.8" y="154.5" width="7.9" height="17.5" fill="#e53935"/><line x1="487.2" y1="78.2" x2="487.2" y2="96.5" stroke="#212121" stroke-width="1"/><rect x="483.2" y="82.4" width="7.9" height="10.8" fill="#212121"/><line x1="501.6" y1="104.9" x2="501.6" y2="129.5" stroke="#212121" stroke-width="1"/><rect x="497.6" y="109.5" width="7.9" height="1.3" fill="#212121"/><line x1="516.0" y1="84.9" x2="516.0" y2="107.8" stroke="#212121" stroke-width="1"/><rect x="512.0" y="87.8" width="7.9" height="19.6" fill="#212121"/><line x1="530.4" y1="79.4" x2="530.4" y2="98.2" stroke="#e53935" stroke-width="1"/><rect x="526.4" y="80.3" width="7.9" height="11.7" fill="#e53935"/><line x1="544.8" y1="98.6" x2="544.8" y2="125.7" stroke="#e53935" stroke-width="1"/><rect x="540.8" y="101.6" width="7.9" height="24.2" fill="#e53935"/><line x1="559.2" y1="64.9" x2="559.2" y2="86.1" stroke="#212121" stroke-width="1"/><rect x="555.2" y="67.8" width="7.9" height="7.1" fill="#212121"/><line x1="573.6" y1="51.1" x2="573.6" y2="59.0" stroke="#212121" stroke-width="1"/><rect x="569.6" y="53.2" width="7.9" height="5.4" fill="#212121"/><line x1="588.0" y1="44.0" x2="588.0" y2="50.3" stroke="#e53935" stroke-width="1"/><rect x="584.0" y="46.1" width="7.9" height="2.5" fill="#e53935"/><line x1="602.4" y1="56.9" x2="602.4" y2="74.4" stroke="#212121" stroke-width="1"/><rect x="598.4" y="56.9" width="7.9" height="5.0" fill="#212121"/><line x1="616.8" y1="53.6" x2="616.8" y2="71.9" stroke="#e53935" stroke-width="1"/><rect x="612.8" y="63.6" width="7.9" height="2.1" fill="#e53935"/><polyline fill="none" stroke="#1565c0" stroke-width="1.5" stroke-dasharray="4 3" points="328.8,201.4 343.2,197.0 357.6,192.1 372.0,186.9 386.4,180.1 400.8,173.4 415.2,165.9 429.6,158.2 444.0,149.7 458.4,141.1 472.8,133.1 487.2,134.5 501.6,134.8 516.0,135.8 530.4,134.4 544.8,134.3 559.2,131.4 573.6,127.2 588.0,120.9 602.4,115.6 616.8,111.2"/><text x="48" y="352" font-size="10" fill="#666666">資料：TWSE · 0050 追蹤台灣50</text></svg>