<svg xmlns="http://www.w3.org/2000/svg" viewBox="0 0 640 360" role="img" aria-label="2330 布林"><title>2330 布林</title><rect width="640" height="100%" fill="#ffffff"/><text x="48" y="22" font-size="14" font-weight="bold" fill="#212121">2330 台積電 — 布林通道 (20, 2)</text><text x="48" y="38" font-size="10" fill="#666666">中軌 = MA20</text><line x1="54.4" y1="186.0" x2="54.4" y2="216.1" stroke="#212121" stroke-width="1"/><rect x="50.9" y="203.0" width="7.0" height="3.8" fill="#212121"/><line x1="67.2" y1="210.5" x2="67.2" y2="221.8" stroke="#e53935" stroke-width="1"/><rect x="63.7" y="218.0" width="7.0" height="1.9" fill="#e53935"/><line x1="80.0" y1="208.6" x2="80.0" y2="219.9" stroke="#e53935" stroke-width="1"/><rect x="76.5" y="218.0" width="7.0" height="1.0" fill="#e53935"/><line x1="92.8" y1="216.1" x2="92.8" y2="227.4" stroke="#212121" stroke-width="1"/><rect x="89.3" y="225.5" width="7.0" height="1.9" fill="#212121"/><line x1="105.6" y1="214.2" x2="105.6" y2="225.5" stroke="#212121" stroke-width="1"/><rect x="102.1" y="216.1" width="7.0" height="9.4" fill="#212121"/><line x1="118.4" y1="203.0" x2="118.4" y2="216.1" stroke="#e53935" stroke-width="1"/><rect x="114.9" y="204.8" width="7.0" height="1.9" fill="#e53935"/><line x1="131.2" y1="199.2" x2="131.2" y2="214.2" stroke="#e53935" stroke-width="1"/><rect x="127.7" y="206.7" width="7.0" height="5.6" fill="#e53935"/><line x1="144.0" y1="216.1" x2="144.0" y2="233.0" stroke="#e53935" stroke-width="1"/><rect x="140.5" y="216.1" width="7.0" height="15.0" fill="#e53935"/><line x1="156.8" y1="238.7" x2="156.8" y2="246.2" stroke="#e53935" stroke-width="1"/><rect x="153.3" y="240.6" width="7.0" height="1.9" fill="#e53935"/><line x1="169.6" y1="236.8" x2="169.6" y2="248.1" stroke="#e53935" stroke-width="1"/><rect x="166.1" y="236.8" width="7.0" height="9.4" fill="#e53935"/><line x1="182.4" y1="253.7" x2="182.4" y2="263.1" stroke="#e53935" stroke-width="1"/><rect x="178.9" y="253.7" width="7.0" height="3.8" fill="#e53935"/><line x1="195.2" y1="255.6" x2="195.2" y2="265.0" stroke="#e53935" stroke-width="1"/><rect x="191.7" y="255.6" width="7.0" height="5.6" fill="#e53935"/><line x1="208.0" y1="289.5" x2="208.0" y2="298.9" stroke="#e53935" stroke-width="1"/><rect x="204.5" y="289.5" width="7.0" height="3.8" fill="#e53935"/><line x1="220.8" y1="287.6" x2="220.8" y2="310.1" stroke="#212121" stroke-width="1"/><rect x="217.3" y="287.6" width="7.0" height="20.7" fill="#212121"/><line x1="233.6" y1="291.3" x2="233.6" y2="300.7" stroke="#e53935" stroke-width="1"/><rect x="230.1" y="291.3" width="7.0" height="5.6" fill="#e53935"/><line x1="246.4" y1="95.8" x2="246.4" y2="112.7" stroke="#e53935" stroke-width="1"/><rect x="242.9" y="103.3" width="7.0" height="5.6" fill="#e53935"/><line x1="259.2" y1="101.4" x2="259.2" y2="135.3" stroke="#212121" stroke-width="1"/><rect x="255.7" y="105.2" width="7.0" height="20.7" fill="#212121"/><line x1="272.0" y1="112.7" x2="272.0" y2="127.7" stroke="#212121" stroke-width="1"/><rect x="268.5" y="120.2" width="7.0" height="3.8" fill="#212121"/><line x1="284.8" y1="114.6" x2="284.8" y2="135.3" stroke="#212121" stroke-width="1"/><rect x="281.3" y="116.5" width="7.0" height="18.8" fill="#212121"/><line x1="297.6" y1="120.2" x2="297.6" y2="133.4" stroke="#e53935" stroke-width="1"/><rect x="294.1" y="120.2" width="7.0" height="13.2" fill="#e53935"/><line x1="310.4" y1="139.0" x2="310.4" y2="152.2" stroke="#e53935" stroke-width="1"/><rect x="306.9" y="140.9" width="7.0" height="3.8" fill="#e53935"/><line x1="323.2" y1="140.9" x2="323.2" y2="150.3" stroke="#212121" stroke-width="1"/><rect x="319.7" y="146.5" width="7.0" height="3.8" fill="#212121"/><line x1="336.0" y1="157.8" x2="336.0" y2="167.2" stroke="#212121" stroke-width="1"/><rect x="332.5" y="159.7" width="7.0" height="7.5" fill="#212121"/><line x1="348.8" y1="150.3" x2="348.8" y2="159.7" stroke="#212121" stroke-width="1"/><rect x="345.3" y="154.1" width="7.0" height="5.6" fill="#212121"/><line x1="361.6" y1="139.0" x2="361.6" y2="156.0" stroke="#e53935" stroke-width="1"/><rect x="358.1" y="146.5" width="7.0" height="5.6" fill="#e53935"/><line x1="374.4" y1="114.6" x2="374.4" y2="142.8" stroke="#212121" stroke-width="1"/><rect x="370.9" y="120.2" width="7.0" height="16.9" fill="#212121"/><line x1="387.2" y1="135.3" x2="387.2" y2="150.3" stroke="#e53935" stroke-width="1"/><rect x="383.7" y="135.3" width="7.0" height="7.5" fill="#e53935"/><line x1="400.0" y1="146.5" x2="400.0" y2="159.7" stroke="#e53935" stroke-width="1"/><rect x="396.5" y="154.1" width="7.0" height="5.6" fill="#e53935"/><line x1="412.8" y1="131.5" x2="412.8" y2="157.8" stroke="#e53935" stroke-width="1"/><rect x="409.3" y="140.9" width="7.0" height="7.5" fill="#e53935"/><line x1="425.6" y1="133.4" x2="425.6" y2="148.4" stroke="#212121" stroke-width="1"/><rect x="422.1" y="137.1" width="7.0" height="11.3" fill="#212121"/><line x1="438.4" y1="120.2" x2="438.4" y2="137.1" stroke="#212121" stroke-width="1"/><rect x="434.9" y="124.0" width="7.0" height="3.8" fill="#212121"/><line x1="451.2" y1="107.1" x2="451.2" y2="120.2" stroke="#212121" stroke-width="1"/><rect x="447.7" y="110.8" width="7.0" height="9.4" fill="#212121"/><line x1="464.0" y1="129.6" x2="464.0" y2="146.5" stroke="#e53935" stroke-width="1"/><rect x="460.5" y="142.8" width="7.0" height="1.0" fill="#e53935"/><line x1="476.8" y1="135.3" x2="476.8" y2="146.5" stroke="#e53935" stroke-width="1"/><rect x="473.3" y="142.8" width="7.0" height="1.0" fill="#e53935"/><line x1="489.6" y1="129.6" x2="489.6" y2="163.5" stroke="#e53935" stroke-width="1"/><rect x="486.1" y="133.4" width="7.0" height="28.2" fill="#e53935"/><line x1="502.4" y1="114.6" x2="502.4" y2="127.7" stroke="#212121" stroke-width="1"/><rect x="498.9" y="114.6" width="7.0" height="5.6" fill="#212121"/><line x1="515.2" y1="139.0" x2="515.2" y2="157.8" stroke="#e53935" stroke-width="1"/><rect x="511.7" y="142.8" width="7.0" height="3.8" fill="#e53935"/><line x1="528.0" y1="124.0" x2="528.0" y2="140.9" stroke="#212121" stroke-width="1"/><rect x="524.5" y="129.6" width="7.0" height="11.3" fill="#212121"/><line x1="540.8" y1="116.5" x2="540.8" y2="125.9" stroke="#e53935" stroke-width="1"/><rect x="537.3" y="122.1" width="7.0" height="1.0" fill="#e53935"/><line x1="553.6" y1="116.5" x2="553.6" y2="150.3" stroke="#e53935" stroke-width="1"/><rect x="550.1" y="125.9" width="7.0" height="24.4" fill="#e53935"/><line x1="566.4" y1="84.5" x2="566.4" y2="105.2" stroke="#212121" stroke-width="1"/><rect x="562.9" y="88.3" width="7.0" height="11.3" fill="#212121"/><line x1="579.2" y1="80.7" x2="579.2" y2="92.0" stroke="#e53935" stroke-width="1"/><rect x="575.7" y="92.0" width="7.0" height="1.0" fill="#e53935"/><line x1="592.0" y1="71.3" x2="592.0" y2="82.6" stroke="#e53935" stroke-width="1"/><rect x="588.5" y="77.0" width="7.0" height="1.0" fill="#e53935"/><line x1="604.8" y1="86.4" x2="604.8" y2="101.4" stroke="#212121" stroke-width="1"/><rect x="601.3" y="90.1" width="7.0" height="3.8" fill="#212121"/><line x1="617.6" y1="80.7" x2="617.6" y2="105.2" stroke="#e53935" stroke-width="1"/><rect x="614.1" y="103.3" width="7.0" height="1.0" fill="#e53935"/><polyline fill="none" stroke="#00897b" stroke-width="1.5" points="297.6,93.3 310.4,86.2 323.2,80.5 336.0,77.1 348.8,73.1 361.6,67.9 374.4,62.3 387.2,56.7 400.0,53.6 412.8,50.1 425.6,47.9 438.4,45.5 451.2,44.0 464.0,52.3 476.8,72.8 489.6,108.5 502.4,112.6 515.2,114.0 528.0,115.9 540.8,114.0 553.6,115.1 566.4,107.4 579.2,99.1 592.0,89.6 604.8,85.7 617.6,83.3"/><polyline fill="none" stroke="#666666" stroke-width="1.5" stroke-dasharray="4 3" points="297.6,210.4 310.4,207.1 323.2,203.7 336.0,201.2 348.8,197.8 361.6,193.8 374.4,190.5 387.2,186.9 400.0,183.8 412.8,178.8 425.6,174.4 438.4,168.1 451.2,161.3 464.0,154.0 476.8,145.7 489.6,137.8 502.4,138.7 515.2,139.5 528.0,140.3 540.8,139.7 553.6,140.0 566.4,137.9 579.2,135.0 592.0,130.5 604.8,127.2 617.6,125.0"/><polyline fill="none" stroke="#00897b" stroke-width="1.5" points="297.6,327.4 310.4,328.0 323.2,327.0 336.0,325.2 348.8,322.5 361.6,319.8 374.4,318.7 387.2,317.0 400.0,314.0 412.8,307.5 425.6,300.9 438.4,290.6 451.2,278.6 464.0,255.6 476.8,218.6 489.6,167.1 502.4,164.7 515.2,165.0 528.0,164.8 540.8,165.3 553.6,164.9 566.4,168.4 579.2,170.8 592.0,171.3 604.8,168.7 617.6,166.8"/><text x="48" y="352" font-size="10" fill="#666666">資料：TWSE · 觸軌需看趨勢方向</text></svg>