<svg xmlns="http://www.w3.org/2000/svg" viewBox="0 0 640 360" role="img" aria-label="2330 RSI"><title>2330 RSI</title><rect width="640" height="100%" fill="#ffffff"/><text x="48" y="22" font-size="14" font-weight="bold" fill="#212121">2330 台積電 — RSI (14)</text><text x="48" y="38" font-size="10" fill="#666666">70 超買 / 30 超賣參考線</text><line x1="54.4" y1="126.1" x2="54.4" y2="147.7" stroke="#212121" stroke-width="1"/><rect x="50.9" y="138.3" width="7.0" height="2.7" fill="#212121"/><line x1="67.2" y1="143.6" x2="67.2" y2="151.7" stroke="#e53935" stroke-width="1"/><rect x="63.7" y="149.0" width="7.0" height="1.3" fill="#e53935"/><line x1="80.0" y1="142.3" x2="80.0" y2="150.4" stroke="#e53935" stroke-width="1"/><rect x="76.5" y="149.0" width="7.0" height="1.0" fill="#e53935"/><line x1="92.8" y1="147.7" x2="92.8" y2="155.8" stroke="#212121" stroke-width="1"/><rect x="89.3" y="154.4" width="7.0" height="1.3" fill="#212121"/><line x1="105.6" y1="146.3" x2="105.6" y2="154.4" stroke="#212121" stroke-width="1"/><rect x="102.1" y="147.7" width="7.0" height="6.7" fill="#212121"/><line x1="118.4" y1="138.3" x2="118.4" y2="147.7" stroke="#e53935" stroke-width="1"/><rect x="114.9" y="139.6" width="7.0" height="1.3" fill="#e53935"/><line x1="131.2" y1="135.6" x2="131.2" y2="146.3" stroke="#e53935" stroke-width="1"/><rect x="127.7" y="140.9" width="7.0" height="4.0" fill="#e53935"/><line x1="144.0" y1="147.7" x2="144.0" y2="159.8" stroke="#e53935" stroke-width="1"/><rect x="140.5" y="147.7" width="7.0" height="10.8" fill="#e53935"/><line x1="156.8" y1="163.8" x2="156.8" y2="169.2" stroke="#e53935" stroke-width="1"/><rect x="153.3" y="165.2" width="7.0" height="1.3" fill="#e53935"/><line x1="169.6" y1="162.5" x2="169.6" y2="170.6" stroke="#e53935" stroke-width="1"/><rect x="166.1" y="162.5" width="7.0" height="6.7" fill="#e53935"/><line x1="182.4" y1="174.6" x2="182.4" y2="181.3" stroke="#e53935" stroke-width="1"/><rect x="178.9" y="174.6" width="7.0" height="2.7" fill="#e53935"/><line x1="195.2" y1="176.0" x2="195.2" y2="182.7" stroke="#e53935" stroke-width="1"/><rect x="191.7" y="176.0" width="7.0" height="4.0" fill="#e53935"/><line x1="208.0" y1="200.2" x2="208.0" y2="206.9" stroke="#e53935" stroke-width="1"/><rect x="204.5" y="200.2" width="7.0" height="2.7" fill="#e53935"/><line x1="220.8" y1="198.8" x2="220.8" y2="215.0" stroke="#212121" stroke-width="1"/><rect x="217.3" y="198.8" width="7.0" height="14.8" fill="#212121"/><line x1="233.6" y1="201.5" x2="233.6" y2="208.3" stroke="#e53935" stroke-width="1"/><rect x="230.1" y="201.5" width="7.0" height="4.0" fill="#e53935"/><line x1="246.4" y1="61.5" x2="246.4" y2="73.6" stroke="#e53935" stroke-width="1"/><rect x="242.9" y="66.9" width="7.0" height="4.0" fill="#e53935"/><line x1="259.2" y1="65.5" x2="259.2" y2="89.8" stroke="#212121" stroke-width="1"/><rect x="255.7" y="68.2" width="7.0" height="14.8" fill="#212121"/><line x1="272.0" y1="73.6" x2="272.0" y2="84.4" stroke="#212121" stroke-width="1"/><rect x="268.5" y="79.0" width="7.0" height="2.7" fill="#212121"/><line x1="284.8" y1="75.0" x2="284.8" y2="89.8" stroke="#212121" stroke-width="1"/><rect x="281.3" y="76.3" width="7.0" height="13.5" fill="#212121"/><line x1="297.6" y1="79.0" x2="297.6" y2="88.4" stroke="#e53935" stroke-width="1"/><rect x="294.1" y="79.0" width="7.0" height="9.4" fill="#e53935"/><line x1="310.4" y1="92.5" x2="310.4" y2="101.9" stroke="#e53935" stroke-width="1"/><rect x="306.9" y="93.8" width="7.0" height="2.7" fill="#e53935"/><line x1="323.2" y1="93.8" x2="323.2" y2="100.6" stroke="#212121" stroke-width="1"/><rect x="319.7" y="97.9" width="7.0" height="2.7" fill="#212121"/><line x1="336.0" y1="105.9" x2="336.0" y2="112.7" stroke="#212121" stroke-width="1"/><rect x="332.5" y="107.3" width="7.0" height="5.4" fill="#212121"/><line x1="348.8" y1="100.6" x2="348.8" y2="107.3" stroke="#212121" stroke-width="1"/><rect x="345.3" y="103.2" width="7.0" height="4.0" fill="#212121"/><line x1="361.6" y1="92.5" x2="361.6" y2="104.6" stroke="#e53935" stroke-width="1"/><rect x="358.1" y="97.9" width="7.0" height="4.0" fill="#e53935"/><line x1="374.4" y1="75.0" x2="374.4" y2="95.2" stroke="#212121" stroke-width="1"/><rect x="370.9" y="79.0" width="7.0" height="12.1" fill="#212121"/><line x1="387.2" y1="89.8" x2="387.2" y2="100.6" stroke="#e53935" stroke-width="1"/><rect x="383.7" y="89.8" width="7.0" height="5.4" fill="#e53935"/><line x1="400.0" y1="97.9" x2="400.0" y2="107.3" stroke="#e53935" stroke-width="1"/><rect x="396.5" y="103.2" width="7.0" height="4.0" fill="#e53935"/><line x1="412.8" y1="87.1" x2="412.8" y2="105.9" stroke="#e53935" stroke-width="1"/><rect x="409.3" y="93.8" width="7.0" height="5.4" fill="#e53935"/><line x1="425.6" y1="88.4" x2="425.6" y2="99.2" stroke="#212121" stroke-width="1"/><rect x="422.1" y="91.1" width="7.0" height="8.1" fill="#212121"/><line x1="438.4" y1="79.0" x2="438.4" y2="91.1" stroke="#212121" stroke-width="1"/><rect x="434.9" y="81.7" width="7.0" height="2.7" fill="#212121"/><line x1="451.2" y1="69.6" x2="451.2" y2="79.0" stroke="#212121" stroke-width="1"/><rect x="447.7" y="72.3" width="7.0" height="6.7" fill="#212121"/><line x1="464.0" y1="85.7" x2="464.0" y2="97.9" stroke="#e53935" stroke-width="1"/><rect x="460.5" y="95.2" width="7.0" height="1.0" fill="#e53935"/><line x1="476.8" y1="89.8" x2="476.8" y2="97.9" stroke="#e53935" stroke-width="1"/><rect x="473.3" y="95.2" width="7.0" height="1.0" fill="#e53935"/><line x1="489.6" y1="85.7" x2="489.6" y2="110.0" stroke="#e53935" stroke-width="1"/><rect x="486.1" y="88.4" width="7.0" height="20.2" fill="#e53935"/><line x1="502.4" y1="75.0" x2="502.4" y2="84.4" stroke="#212121" stroke-width="1"/><rect x="498.9" y="75.0" width="7.0" height="4.0" fill="#212121"/><line x1="515.2" y1="92.5" x2="515.2" y2="105.9" stroke="#e53935" stroke-width="1"/><rect x="511.7" y="95.2" width="7.0" height="2.7" fill="#e53935"/><line x1="528.0" y1="81.7" x2="528.0" y2="93.8" stroke="#212121" stroke-width="1"/><rect x="524.5" y="85.7" width="7.0" height="8.1" fill="#212121"/><line x1="540.8" y1="76.3" x2="540.8" y2="83.0" stroke="#e53935" stroke-width="1"/><rect x="537.3" y="80.4" width="7.0" height="1.0" fill="#e53935"/><line x1="553.6" y1="76.3" x2="553.6" y2="100.6" stroke="#e53935" stroke-width="1"/><rect x="550.1" y="83.0" width="7.0" height="17.5" fill="#e53935"/><line x1="566.4" y1="53.4" x2="566.4" y2="68.2" stroke="#212121" stroke-width="1"/><rect x="562.9" y="56.1" width="7.0" height="8.1" fill="#212121"/><line x1="579.2" y1="50.7" x2="579.2" y2="58.8" stroke="#e53935" stroke-width="1"/><rect x="575.7" y="58.8" width="7.0" height="1.0" fill="#e53935"/><line x1="592.0" y1="44.0" x2="592.0" y2="52.1" stroke="#e53935" stroke-width="1"/><rect x="588.5" y="48.0" width="7.0" height="1.0" fill="#e53935"/><line x1="604.8" y1="54.8" x2="604.8" y2="65.5" stroke="#212121" stroke-width="1"/><rect x="601.3" y="57.5" width="7.0" height="2.7" fill="#212121"/><line x1="617.6" y1="50.7" x2="617.6" y2="68.2" stroke="#e53935" stroke-width="1"/><rect x="614.1" y="66.9" width="7.0" height="1.0" fill="#e53935"/><line x1="48" y1="223" x2="624" y2="223" stroke="#dddddd"/><line x1="48" y1="194.4" x2="624" y2="194.4" stroke="#ddd" stroke-dasharray="4 3"/><text x="52" y="191.4" font-size="9" fill="#666666">70</text><line x1="48" y1="170.0" x2="624" y2="170.0" stroke="#ddd" stroke-dasharray="4 3"/><text x="52" y="167.0" font-size="9" fill="#666666">50</text><line x1="48" y1="145.6" x2="624" y2="145.6" stroke="#ddd" stroke-dasharray="4 3"/><text x="52" y="142.6" font-size="9" fill="#666666">30</text><polyline fill="none" stroke="#7b1fa2" stroke-width="1.5" points="233.6,139.8 246.4,189.2 259.2,184.0 272.0,184.3 284.8,181.5 297.6,184.0 310.4,178.9 323.2,176.6 336.0,172.6 348.8,174.2 361.6,177.0 374.4,179.0 387.2,179.4 400.0,173.9 412.8,177.1 425.6,174.8 438.4,179.8 451.2,181.5 464.0,174.4 476.8,174.4 489.6,177.0 502.4,180.4 515.2,172.9 528.0,173.5 540.8,178.7 553.6,177.4 566.4,184.2 579.2,186.0 592.0,189.3 604.8,182.6 617.6,179.1"/><text x="48" y="352" font-size="10" fill="#666666">資料：TWSE · 強勢股可長期 >70</text></svg>