<svg xmlns="http://www.w3.org/2000/svg" viewBox="0 0 640 360" role="img" aria-label="2330 MACD"><title>2330 MACD</title><rect width="640" height="100%" fill="#ffffff"/><text x="48" y="22" font-size="14" font-weight="bold" fill="#212121">2330 台積電 — MACD (12, 26, 9)</text><text x="48" y="38" font-size="10" fill="#666666">上：日 K · 下：DIF / Signal / 柱狀</text><line x1="54.4" y1="118.9" x2="54.4" y2="138.6" stroke="#212121" stroke-width="1"/><rect x="50.9" y="130.0" width="7.0" height="2.5" fill="#212121"/><line x1="67.2" y1="134.9" x2="67.2" y2="142.3" stroke="#e53935" stroke-width="1"/><rect x="63.7" y="139.8" width="7.0" height="1.2" fill="#e53935"/><line x1="80.0" y1="133.7" x2="80.0" y2="141.0" stroke="#e53935" stroke-width="1"/><rect x="76.5" y="139.8" width="7.0" height="1.0" fill="#e53935"/><line x1="92.8" y1="138.6" x2="92.8" y2="146.0" stroke="#212121" stroke-width="1"/><rect x="89.3" y="144.7" width="7.0" height="1.2" fill="#212121"/><line x1="105.6" y1="137.4" x2="105.6" y2="144.7" stroke="#212121" stroke-width="1"/><rect x="102.1" y="138.6" width="7.0" height="6.1" fill="#212121"/><line x1="118.4" y1="130.0" x2="118.4" y2="138.6" stroke="#e53935" stroke-width="1"/><rect x="114.9" y="131.2" width="7.0" height="1.2" fill="#e53935"/><line x1="131.2" y1="127.5" x2="131.2" y2="137.4" stroke="#e53935" stroke-width="1"/><rect x="127.7" y="132.4" width="7.0" height="3.7" fill="#e53935"/><line x1="144.0" y1="138.6" x2="144.0" y2="149.6" stroke="#e53935" stroke-width="1"/><rect x="140.5" y="138.6" width="7.0" height="9.8" fill="#e53935"/><line x1="156.8" y1="153.3" x2="156.8" y2="158.2" stroke="#e53935" stroke-width="1"/><rect x="153.3" y="154.6" width="7.0" height="1.2" fill="#e53935"/><line x1="169.6" y1="152.1" x2="169.6" y2="159.5" stroke="#e53935" stroke-width="1"/><rect x="166.1" y="152.1" width="7.0" height="6.1" fill="#e53935"/><line x1="182.4" y1="163.1" x2="182.4" y2="169.3" stroke="#e53935" stroke-width="1"/><rect x="178.9" y="163.1" width="7.0" height="2.5" fill="#e53935"/><line x1="195.2" y1="164.4" x2="195.2" y2="170.5" stroke="#e53935" stroke-width="1"/><rect x="191.7" y="164.4" width="7.0" height="3.7" fill="#e53935"/><line x1="208.0" y1="186.5" x2="208.0" y2="192.6" stroke="#e53935" stroke-width="1"/><rect x="204.5" y="186.5" width="7.0" height="2.5" fill="#e53935"/><line x1="220.8" y1="185.3" x2="220.8" y2="200.0" stroke="#212121" stroke-width="1"/><rect x="217.3" y="185.3" width="7.0" height="13.5" fill="#212121"/><line x1="233.6" y1="187.7" x2="233.6" y2="193.9" stroke="#e53935" stroke-width="1"/><rect x="230.1" y="187.7" width="7.0" height="3.7" fill="#e53935"/><line x1="246.4" y1="60.0" x2="246.4" y2="71.0" stroke="#e53935" stroke-width="1"/><rect x="242.9" y="64.9" width="7.0" height="3.7" fill="#e53935"/><line x1="259.2" y1="63.7" x2="259.2" y2="85.8" stroke="#212121" stroke-width="1"/><rect x="255.7" y="66.1" width="7.0" height="13.5" fill="#212121"/><line x1="272.0" y1="71.0" x2="272.0" y2="80.9" stroke="#212121" stroke-width="1"/><rect x="268.5" y="75.9" width="7.0" height="2.5" fill="#212121"/><line x1="284.8" y1="72.3" x2="284.8" y2="85.8" stroke="#212121" stroke-width="1"/><rect x="281.3" y="73.5" width="7.0" height="12.3" fill="#212121"/><line x1="297.6" y1="75.9" x2="297.6" y2="84.5" stroke="#e53935" stroke-width="1"/><rect x="294.1" y="75.9" width="7.0" height="8.6" fill="#e53935"/><line x1="310.4" y1="88.2" x2="310.4" y2="96.8" stroke="#e53935" stroke-width="1"/><rect x="306.9" y="89.4" width="7.0" height="2.5" fill="#e53935"/><line x1="323.2" y1="89.4" x2="323.2" y2="95.6" stroke="#212121" stroke-width="1"/><rect x="319.7" y="93.1" width="7.0" height="2.5" fill="#212121"/><line x1="336.0" y1="100.5" x2="336.0" y2="106.6" stroke="#212121" stroke-width="1"/><rect x="332.5" y="101.7" width="7.0" height="4.9" fill="#212121"/><line x1="348.8" y1="95.6" x2="348.8" y2="101.7" stroke="#212121" stroke-width="1"/><rect x="345.3" y="98.0" width="7.0" height="3.7" fill="#212121"/><line x1="361.6" y1="88.2" x2="361.6" y2="99.3" stroke="#e53935" stroke-width="1"/><rect x="358.1" y="93.1" width="7.0" height="3.7" fill="#e53935"/><line x1="374.4" y1="72.3" x2="374.4" y2="90.7" stroke="#212121" stroke-width="1"/><rect x="370.9" y="75.9" width="7.0" height="11.1" fill="#212121"/><line x1="387.2" y1="85.8" x2="387.2" y2="95.6" stroke="#e53935" stroke-width="1"/><rect x="383.7" y="85.8" width="7.0" height="4.9" fill="#e53935"/><line x1="400.0" y1="93.1" x2="400.0" y2="101.7" stroke="#e53935" stroke-width="1"/><rect x="396.5" y="98.0" width="7.0" height="3.7" fill="#e53935"/><line x1="412.8" y1="83.3" x2="412.8" y2="100.5" stroke="#e53935" stroke-width="1"/><rect x="409.3" y="89.4" width="7.0" height="4.9" fill="#e53935"/><line x1="425.6" y1="84.5" x2="425.6" y2="94.4" stroke="#212121" stroke-width="1"/><rect x="422.1" y="87.0" width="7.0" height="7.4" fill="#212121"/><line x1="438.4" y1="75.9" x2="438.4" y2="87.0" stroke="#212121" stroke-width="1"/><rect x="434.9" y="78.4" width="7.0" height="2.5" fill="#212121"/><line x1="451.2" y1="67.3" x2="451.2" y2="75.9" stroke="#212121" stroke-width="1"/><rect x="447.7" y="69.8" width="7.0" height="6.1" fill="#212121"/><line x1="464.0" y1="82.1" x2="464.0" y2="93.1" stroke="#e53935" stroke-width="1"/><rect x="460.5" y="90.7" width="7.0" height="1.0" fill="#e53935"/><line x1="476.8" y1="85.8" x2="476.8" y2="93.1" stroke="#e53935" stroke-width="1"/><rect x="473.3" y="90.7" width="7.0" height="1.0" fill="#e53935"/><line x1="489.6" y1="82.1" x2="489.6" y2="104.2" stroke="#e53935" stroke-width="1"/><rect x="486.1" y="84.5" width="7.0" height="18.4" fill="#e53935"/><line x1="502.4" y1="72.3" x2="502.4" y2="80.9" stroke="#212121" stroke-width="1"/><rect x="498.9" y="72.3" width="7.0" height="3.7" fill="#212121"/><line x1="515.2" y1="88.2" x2="515.2" y2="100.5" stroke="#e53935" stroke-width="1"/><rect x="511.7" y="90.7" width="7.0" height="2.5" fill="#e53935"/><line x1="528.0" y1="78.4" x2="528.0" y2="89.4" stroke="#212121" stroke-width="1"/><rect x="524.5" y="82.1" width="7.0" height="7.4" fill="#212121"/><line x1="540.8" y1="73.5" x2="540.8" y2="79.6" stroke="#e53935" stroke-width="1"/><rect x="537.3" y="77.2" width="7.0" height="1.0" fill="#e53935"/><line x1="553.6" y1="73.5" x2="553.6" y2="95.6" stroke="#e53935" stroke-width="1"/><rect x="550.1" y="79.6" width="7.0" height="16.0" fill="#e53935"/><line x1="566.4" y1="52.6" x2="566.4" y2="66.1" stroke="#212121" stroke-width="1"/><rect x="562.9" y="55.1" width="7.0" height="7.4" fill="#212121"/><line x1="579.2" y1="50.1" x2="579.2" y2="57.5" stroke="#e53935" stroke-width="1"/><rect x="575.7" y="57.5" width="7.0" height="1.0" fill="#e53935"/><line x1="592.0" y1="44.0" x2="592.0" y2="51.4" stroke="#e53935" stroke-width="1"/><rect x="588.5" y="47.7" width="7.0" height="1.0" fill="#e53935"/><line x1="604.8" y1="53.8" x2="604.8" y2="63.7" stroke="#212121" stroke-width="1"/><rect x="601.3" y="56.3" width="7.0" height="2.5" fill="#212121"/><line x1="617.6" y1="50.1" x2="617.6" y2="66.1" stroke="#e53935" stroke-width="1"/><rect x="614.1" y="64.9" width="7.0" height="1.0" fill="#e53935"/><line x1="48" y1="208" x2="624" y2="208" stroke="#dddddd"/><line x1="48" y1="131.2" x2="624" y2="131.2" stroke="#ccc" stroke-dasharray="3 3"/><rect x="371.2" y="131.2" width="6.4" height="61.7" fill="#e53935" opacity="0.7"/><rect x="384.0" y="131.2" width="6.4" height="48.2" fill="#e53935" opacity="0.7"/><rect x="396.8" y="131.2" width="6.4" height="34.4" fill="#e53935" opacity="0.7"/><rect x="409.6" y="131.2" width="6.4" height="25.5" fill="#e53935" opacity="0.7"/><rect x="422.4" y="131.2" width="6.4" height="17.1" fill="#e53935" opacity="0.7"/><rect x="435.2" y="131.2" width="6.4" height="13.4" fill="#e53935" opacity="0.7"/><rect x="448.0" y="131.2" width="6.4" height="10.9" fill="#e53935" opacity="0.7"/><rect x="460.8" y="131.2" width="6.4" height="5.2" fill="#e53935" opacity="0.7"/><rect x="473.6" y="131.2" width="6.4" height="1.0" fill="#e53935" opacity="0.7"/><rect x="486.4" y="130.1" width="6.4" height="1.1" fill="#00897b" opacity="0.7"/><rect x="499.2" y="130.2" width="6.4" height="1.0" fill="#00897b" opacity="0.7"/><rect x="512.0" y="126.8" width="6.4" height="4.4" fill="#00897b" opacity="0.7"/><rect x="524.8" y="124.7" width="6.4" height="6.6" fill="#00897b" opacity="0.7"/><rect x="537.6" y="125.8" width="6.4" height="5.5" fill="#00897b" opacity="0.7"/><rect x="550.4" y="125.8" width="6.4" height="5.5" fill="#00897b" opacity="0.7"/><rect x="563.2" y="129.2" width="6.4" height="2.0" fill="#00897b" opacity="0.7"/><rect x="576.0" y="131.2" width="6.4" height="1.0" fill="#e53935" opacity="0.7"/><rect x="588.8" y="131.2" width="6.4" height="4.2" fill="#e53935" opacity="0.7"/><rect x="601.6" y="131.2" width="6.4" height="3.4" fill="#e53935" opacity="0.7"/><rect x="614.4" y="131.2" width="6.4" height="1.0" fill="#e53935" opacity="0.7"/><polyline fill="none" stroke="#1565c0" stroke-width="1.5" points="374.4,208.3 387.2,206.9 400.0,201.7 412.8,199.1 425.6,195.0 438.4,194.6 451.2,194.9 464.0,190.5 476.8,186.4 489.6,184.1 502.4,184.0 515.2,179.5 528.0,175.7 540.8,175.4 553.6,174.1 566.4,177.0 579.2,180.1 592.0,184.5 604.8,184.5 617.6,182.3"/><polyline fill="none" stroke="#ff9800" stroke-width="1.5" stroke-dasharray="4 3" points="156.8,131.2 169.6,131.2 182.4,131.2 195.2,131.2 208.0,131.2 220.8,131.2 233.6,131.2 246.4,131.2 259.2,131.2 272.0,131.2 284.8,131.2 297.6,131.2 310.4,131.2 323.2,131.2 336.0,131.2 348.8,131.2 361.6,131.2 374.4,146.6 387.2,158.7 400.0,167.3 412.8,173.7 425.6,177.9 438.4,181.3 451.2,184.0 464.0,185.3 476.8,185.5 489.6,185.2 502.4,185.0 515.2,183.9 528.0,182.3 540.8,180.9 553.6,179.5 566.4,179.0 579.2,179.3 592.0,180.3 604.8,181.1 617.6,181.4"/><text x="500" y="226" font-size="10" fill="#1565c0">— DIF</text><text x="500" y="240" font-size="10" fill="#ff9800">- - Signal</text><text x="48" y="352" font-size="10" fill="#666666">資料：TWSE · 非即時</text></svg>