<svg xmlns="http://www.w3.org/2000/svg" viewBox="0 0 640 360" role="img" aria-label="月營收示意"><title>月營收示意</title><rect width="640" height="100%" fill="#ffffff"/><text x="48" y="22" font-size="14" font-weight="bold" fill="#212121">月營收柱狀 + YoY 折線（教學合成數據）</text><text x="48" y="38" font-size="10" fill="#666666">案例：營收轉折</text><rect x="82.0" y="97.4" width="68.0" height="162.6" fill="#1565c0" opacity="0.85"/><text x="116.0" y="276.0" font-size="10" text-anchor="middle" fill="#666666">M-3</text><text x="116.0" y="91.4" font-size="9" text-anchor="middle" fill="#666666">2800</text><rect x="218.0" y="106.1" width="68.0" height="153.9" fill="#1565c0" opacity="0.85"/><text x="252.0" y="276.0" font-size="10" text-anchor="middle" fill="#666666">M-2</text><text x="252.0" y="100.1" font-size="9" text-anchor="middle" fill="#666666">2650</text><rect x="354.0" y="102.1" width="68.0" height="157.9" fill="#1565c0" opacity="0.85"/><text x="388.0" y="276.0" font-size="10" text-anchor="middle" fill="#666666">M-1</text><text x="388.0" y="96.1" font-size="9" text-anchor="middle" fill="#666666">2720</text><rect x="490.0" y="80.0" width="68.0" height="180.0" fill="#1565c0" opacity="0.85"/><text x="524.0" y="276.0" font-size="10" text-anchor="middle" fill="#666666">M0</text><text x="524.0" y="74.0" font-size="9" text-anchor="middle" fill="#666666">3100</text><polyline fill="none" stroke="#ff9800" stroke-width="2" points="116.0,174.9 252.0,200.0 388.0,182.7 524.0,120.0"/><circle cx="116.0" cy="174.9" r="3" fill="#ff9800"/><text x="116.0" y="166.9" font-size="9" text-anchor="middle" fill="#ff9800">-5.0%</text><circle cx="252.0" cy="200.0" r="3" fill="#ff9800"/><text x="252.0" y="192.0" font-size="9" text-anchor="middle" fill="#ff9800">-8.2%</text><circle cx="388.0" cy="182.7" r="3" fill="#ff9800"/><text x="388.0" y="174.7" font-size="9" text-anchor="middle" fill="#ff9800">-6.0%</text><circle cx="524.0" cy="120.0" r="3" fill="#ff9800"/><text x="524.0" y="112.0" font-size="9" text-anchor="middle" fill="#ff9800">+2.0%</text><text x="52" y="110" font-size="10" fill="#ff9800">— YoY%</text><text x="48" y="352" font-size="10" fill="#666666">合成教學數據 · 見營收轉折案例</text></svg>