<svg xmlns="http://www.w3.org/2000/svg" viewBox="0 0 640 360" role="img" aria-label="季 EPS 趨勢"><title>季 EPS 趨勢</title><rect width="640" height="100%" fill="#ffffff"/><text x="48" y="22" font-size="14" font-weight="bold" fill="#212121">季 EPS 趨勢圖（教學合成數據）</text><text x="48" y="38" font-size="10" fill="#666666">一季一季是否成長</text><rect x="56" y="70" width="528" height="220" fill="#fafafa" stroke="#dddddd"/><rect x="72.5" y="218.6" width="33.0" height="71.4" fill="#1565c0" opacity="0.5"/><text x="89.0" y="214.6" font-size="8" fill="#666666" text-anchor="middle">1.1</text><rect x="138.5" y="205.6" width="33.0" height="84.4" fill="#1565c0" opacity="0.5"/><text x="155.0" y="201.6" font-size="8" fill="#666666" text-anchor="middle">1.3</text><rect x="204.5" y="212.1" width="33.0" height="77.9" fill="#1565c0" opacity="0.5"/><text x="221.0" y="208.1" font-size="8" fill="#666666" text-anchor="middle">1.2</text><rect x="270.5" y="192.6" width="33.0" height="97.4" fill="#1565c0" opacity="0.5"/><text x="287.0" y="188.6" font-size="8" fill="#666666" text-anchor="middle">1.5</text><rect x="336.5" y="186.1" width="33.0" height="103.9" fill="#1565c0" opacity="0.5"/><text x="353.0" y="182.1" font-size="8" fill="#666666" text-anchor="middle">1.6</text><rect x="402.5" y="166.6" width="33.0" height="123.4" fill="#1565c0" opacity="0.5"/><text x="419.0" y="162.6" font-size="8" fill="#666666" text-anchor="middle">1.9</text><rect x="468.5" y="153.6" width="33.0" height="136.4" fill="#1565c0" opacity="0.5"/><text x="485.0" y="149.6" font-size="8" fill="#666666" text-anchor="middle">2.1</text><rect x="534.5" y="134.2" width="33.0" height="155.8" fill="#1565c0" opacity="0.5"/><text x="551.0" y="130.2" font-size="8" fill="#666666" text-anchor="middle">2.4</text><polyline fill="none" stroke="#1565c0" stroke-width="2" points="89.0,218.6 155.0,205.6 221.0,212.1 287.0,192.6 353.0,186.1 419.0,166.6 485.0,153.6 551.0,134.2"/><text x="89.0" y="304.0" font-size="8" fill="#666666" text-anchor="middle">Q1</text><text x="155.0" y="304.0" font-size="8" fill="#666666" text-anchor="middle">Q2</text><text x="221.0" y="304.0" font-size="8" fill="#666666" text-anchor="middle">Q3</text><text x="287.0" y="304.0" font-size="8" fill="#666666" text-anchor="middle">Q4</text><text x="353.0" y="304.0" font-size="8" fill="#666666" text-anchor="middle">Q1</text><text x="419.0" y="304.0" font-size="8" fill="#666666" text-anchor="middle">Q2</text><text x="485.0" y="304.0" font-size="8" fill="#666666" text-anchor="middle">Q3</text><text x="551.0" y="304.0" font-size="8" fill="#666666" text-anchor="middle">Q4</text><text x="48" y="352" font-size="10" fill="#666666">合成教學數據 · 看趨勢非單季</text></svg>