<svg xmlns="http://www.w3.org/2000/svg" viewBox="0 0 640 360" role="img" aria-label="融資餘額趨勢"><title>融資餘額趨勢</title><rect width="640" height="100%" fill="#ffffff"/><text x="48" y="22" font-size="14" font-weight="bold" fill="#212121">融資餘額趨勢圖（教學示意）</text><text x="48" y="38" font-size="10" fill="#666666">融資攀升 + 股價漲 = 散戶槓桿增加</text><rect x="56" y="70" width="528" height="220" fill="#fafafa" stroke="#dddddd"/><rect x="66.6" y="188.0" width="31.7" height="102.0" fill="#ff9800" opacity="0.6"/><rect x="119.4" y="181.2" width="31.7" height="108.8" fill="#ff9800" opacity="0.6"/><rect x="172.2" y="175.2" width="31.7" height="114.8" fill="#ff9800" opacity="0.6"/><rect x="225.0" y="169.3" width="31.7" height="120.7" fill="#ff9800" opacity="0.6"/><rect x="277.8" y="162.5" width="31.7" height="127.5" fill="#ff9800" opacity="0.6"/><rect x="330.6" y="152.3" width="31.7" height="137.7" fill="#ff9800" opacity="0.6"/><rect x="383.4" y="155.7" width="31.7" height="134.3" fill="#ff9800" opacity="0.6"/><rect x="436.2" y="145.5" width="31.7" height="144.5" fill="#ff9800" opacity="0.6"/><rect x="489.0" y="137.0" width="31.7" height="153.0" fill="#ff9800" opacity="0.6"/><rect x="541.8" y="141.2" width="31.7" height="148.8" fill="#ff9800" opacity="0.6"/><polyline fill="none" stroke="#e53935" stroke-width="2" points="82.4,265.6 135.2,241.1 188.0,228.9 240.8,204.4 293.6,180.0 346.4,143.3 399.2,167.8 452.0,118.9 504.8,94.4 557.6,131.1"/><text x="60" y="86" font-size="10" fill="#ff9800">▮ 融資餘額</text><text x="60" y="100" font-size="10" fill="#e53935">— 股價</text><text x="48" y="352" font-size="10" fill="#666666">教學示意 · 融資急降 + 股價跌 = 留意斷頭</text></svg>