<svg xmlns="http://www.w3.org/2000/svg" viewBox="0 0 640 360" role="img" aria-label="2330 均線"><title>2330 均線</title><rect width="640" height="100%" fill="#ffffff"/><text x="48" y="22" font-size="14" font-weight="bold" fill="#212121">2330 台積電 — 均線 MA5 / MA20 / MA60</text><text x="48" y="38" font-size="10" fill="#666666">TWSE 日 K · 教學用</text><line x1="54.4" y1="180.4" x2="54.4" y2="216.2" stroke="#212121" stroke-width="1"/><rect x="50.9" y="200.5" width="7.0" height="4.5" fill="#212121"/><line x1="67.2" y1="209.5" x2="67.2" y2="222.9" stroke="#e53935" stroke-width="1"/><rect x="63.7" y="218.4" width="7.0" height="2.2" fill="#e53935"/><line x1="80.0" y1="207.2" x2="80.0" y2="220.7" stroke="#e53935" stroke-width="1"/><rect x="76.5" y="218.4" width="7.0" height="1.0" fill="#e53935"/><line x1="92.8" y1="216.2" x2="92.8" y2="229.6" stroke="#212121" stroke-width="1"/><rect x="89.3" y="227.4" width="7.0" height="2.2" fill="#212121"/><line x1="105.6" y1="214.0" x2="105.6" y2="227.4" stroke="#212121" stroke-width="1"/><rect x="102.1" y="216.2" width="7.0" height="11.2" fill="#212121"/><line x1="118.4" y1="200.5" x2="118.4" y2="216.2" stroke="#e53935" stroke-width="1"/><rect x="114.9" y="202.8" width="7.0" height="2.2" fill="#e53935"/><line x1="131.2" y1="196.1" x2="131.2" y2="214.0" stroke="#e53935" stroke-width="1"/><rect x="127.7" y="205.0" width="7.0" height="6.7" fill="#e53935"/><line x1="144.0" y1="216.2" x2="144.0" y2="236.3" stroke="#e53935" stroke-width="1"/><rect x="140.5" y="216.2" width="7.0" height="17.9" fill="#e53935"/><line x1="156.8" y1="243.0" x2="156.8" y2="252.0" stroke="#e53935" stroke-width="1"/><rect x="153.3" y="245.3" width="7.0" height="2.2" fill="#e53935"/><line x1="169.6" y1="240.8" x2="169.6" y2="254.2" stroke="#e53935" stroke-width="1"/><rect x="166.1" y="240.8" width="7.0" height="11.2" fill="#e53935"/><line x1="182.4" y1="260.9" x2="182.4" y2="272.1" stroke="#e53935" stroke-width="1"/><rect x="178.9" y="260.9" width="7.0" height="4.5" fill="#e53935"/><line x1="195.2" y1="263.1" x2="195.2" y2="274.3" stroke="#e53935" stroke-width="1"/><rect x="191.7" y="263.1" width="7.0" height="6.7" fill="#e53935"/><line x1="208.0" y1="303.4" x2="208.0" y2="314.6" stroke="#e53935" stroke-width="1"/><rect x="204.5" y="303.4" width="7.0" height="4.5" fill="#e53935"/><line x1="220.8" y1="301.2" x2="220.8" y2="328.0" stroke="#212121" stroke-width="1"/><rect x="217.3" y="301.2" width="7.0" height="24.6" fill="#212121"/><line x1="233.6" y1="305.6" x2="233.6" y2="316.8" stroke="#e53935" stroke-width="1"/><rect x="230.1" y="305.6" width="7.0" height="6.7" fill="#e53935"/><line x1="246.4" y1="73.1" x2="246.4" y2="93.2" stroke="#e53935" stroke-width="1"/><rect x="242.9" y="82.0" width="7.0" height="6.7" fill="#e53935"/><line x1="259.2" y1="79.8" x2="259.2" y2="120.0" stroke="#212121" stroke-width="1"/><rect x="255.7" y="84.3" width="7.0" height="24.6" fill="#212121"/><line x1="272.0" y1="93.2" x2="272.0" y2="111.1" stroke="#212121" stroke-width="1"/><rect x="268.5" y="102.1" width="7.0" height="4.5" fill="#212121"/><line x1="284.8" y1="95.4" x2="284.8" y2="120.0" stroke="#212121" stroke-width="1"/><rect x="281.3" y="97.7" width="7.0" height="22.4" fill="#212121"/><line x1="297.6" y1="102.1" x2="297.6" y2="117.8" stroke="#e53935" stroke-width="1"/><rect x="294.1" y="102.1" width="7.0" height="15.7" fill="#e53935"/><line x1="310.4" y1="124.5" x2="310.4" y2="140.2" stroke="#e53935" stroke-width="1"/><rect x="306.9" y="126.7" width="7.0" height="4.5" fill="#e53935"/><line x1="323.2" y1="126.7" x2="323.2" y2="137.9" stroke="#212121" stroke-width="1"/><rect x="319.7" y="133.4" width="7.0" height="4.5" fill="#212121"/><line x1="336.0" y1="146.9" x2="336.0" y2="158.0" stroke="#212121" stroke-width="1"/><rect x="332.5" y="149.1" width="7.0" height="8.9" fill="#212121"/><line x1="348.8" y1="137.9" x2="348.8" y2="149.1" stroke="#212121" stroke-width="1"/><rect x="345.3" y="142.4" width="7.0" height="6.7" fill="#212121"/><line x1="361.6" y1="124.5" x2="361.6" y2="144.6" stroke="#e53935" stroke-width="1"/><rect x="358.1" y="133.4" width="7.0" height="6.7" fill="#e53935"/><line x1="374.4" y1="95.4" x2="374.4" y2="129.0" stroke="#212121" stroke-width="1"/><rect x="370.9" y="102.1" width="7.0" height="20.1" fill="#212121"/><line x1="387.2" y1="120.0" x2="387.2" y2="137.9" stroke="#e53935" stroke-width="1"/><rect x="383.7" y="120.0" width="7.0" height="8.9" fill="#e53935"/><line x1="400.0" y1="133.4" x2="400.0" y2="149.1" stroke="#e53935" stroke-width="1"/><rect x="396.5" y="142.4" width="7.0" height="6.7" fill="#e53935"/><line x1="412.8" y1="115.6" x2="412.8" y2="146.9" stroke="#e53935" stroke-width="1"/><rect x="409.3" y="126.7" width="7.0" height="8.9" fill="#e53935"/><line x1="425.6" y1="117.8" x2="425.6" y2="135.7" stroke="#212121" stroke-width="1"/><rect x="422.1" y="122.3" width="7.0" height="13.4" fill="#212121"/><line x1="438.4" y1="102.1" x2="438.4" y2="122.3" stroke="#212121" stroke-width="1"/><rect x="434.9" y="106.6" width="7.0" height="4.5" fill="#212121"/><line x1="451.2" y1="86.5" x2="451.2" y2="102.1" stroke="#212121" stroke-width="1"/><rect x="447.7" y="91.0" width="7.0" height="11.2" fill="#212121"/><line x1="464.0" y1="113.3" x2="464.0" y2="133.4" stroke="#e53935" stroke-width="1"/><rect x="460.5" y="129.0" width="7.0" height="1.0" fill="#e53935"/><line x1="476.8" y1="120.0" x2="476.8" y2="133.4" stroke="#e53935" stroke-width="1"/><rect x="473.3" y="129.0" width="7.0" height="1.0" fill="#e53935"/><line x1="489.6" y1="113.3" x2="489.6" y2="153.6" stroke="#e53935" stroke-width="1"/><rect x="486.1" y="117.8" width="7.0" height="33.5" fill="#e53935"/><line x1="502.4" y1="95.4" x2="502.4" y2="111.1" stroke="#212121" stroke-width="1"/><rect x="498.9" y="95.4" width="7.0" height="6.7" fill="#212121"/><line x1="515.2" y1="124.5" x2="515.2" y2="146.9" stroke="#e53935" stroke-width="1"/><rect x="511.7" y="129.0" width="7.0" height="4.5" fill="#e53935"/><line x1="528.0" y1="106.6" x2="528.0" y2="126.7" stroke="#212121" stroke-width="1"/><rect x="524.5" y="113.3" width="7.0" height="13.4" fill="#212121"/><line x1="540.8" y1="97.7" x2="540.8" y2="108.9" stroke="#e53935" stroke-width="1"/><rect x="537.3" y="104.4" width="7.0" height="1.0" fill="#e53935"/><line x1="553.6" y1="97.7" x2="553.6" y2="137.9" stroke="#e53935" stroke-width="1"/><rect x="550.1" y="108.9" width="7.0" height="29.1" fill="#e53935"/><line x1="566.4" y1="59.7" x2="566.4" y2="84.3" stroke="#212121" stroke-width="1"/><rect x="562.9" y="64.1" width="7.0" height="13.4" fill="#212121"/><line x1="579.2" y1="55.2" x2="579.2" y2="68.6" stroke="#e53935" stroke-width="1"/><rect x="575.7" y="68.6" width="7.0" height="1.0" fill="#e53935"/><line x1="592.0" y1="44.0" x2="592.0" y2="57.4" stroke="#e53935" stroke-width="1"/><rect x="588.5" y="50.7" width="7.0" height="1.0" fill="#e53935"/><line x1="604.8" y1="61.9" x2="604.8" y2="79.8" stroke="#212121" stroke-width="1"/><rect x="601.3" y="66.4" width="7.0" height="4.5" fill="#212121"/><line x1="617.6" y1="55.2" x2="617.6" y2="84.3" stroke="#e53935" stroke-width="1"/><rect x="614.1" y="82.0" width="7.0" height="1.0" fill="#e53935"/><polyline fill="none" stroke="#ff9800" stroke-width="1.5" points="105.6,219.8 118.4,219.3 131.2,216.6 144.0,216.2 156.8,219.3 169.6,222.0 182.4,233.6 195.2,245.3 208.0,262.7 220.8,278.8 233.6,291.8 246.4,256.0 259.2,225.1 272.0,185.8 284.8,144.6 297.6,103.9 310.4,112.9 323.2,118.7 336.0,129.0 348.8,134.8 361.6,141.1 374.4,140.2 387.2,136.6 400.0,133.4 412.8,129.0 425.6,129.4 438.4,127.2 451.2,123.6 464.0,120.9 476.8,121.4 489.6,117.8 502.4,116.0 515.2,121.4 528.0,120.9 540.8,116.0 553.6,114.2 566.4,109.3 579.2,97.2 592.0,82.0 604.8,75.3 617.6,69.9"/><polyline fill="none" stroke="#1565c0" stroke-width="1.5" points="297.6,209.4 310.4,205.5 323.2,201.4 336.0,198.4 348.8,194.4 361.6,189.7 374.4,185.7 387.2,181.4 400.0,177.7 412.8,171.8 425.6,166.5 438.4,159.1 451.2,151.0 464.0,142.3 476.8,132.4 489.6,123.1 502.4,124.1 515.2,125.1 528.0,126.1 540.8,125.3 553.6,125.6 566.4,123.2 579.2,119.7 592.0,114.3 604.8,110.4 617.6,107.8"/><text x="490" y="54" font-size="10" fill="#ff9800">— MA5</text><text x="490" y="68" font-size="10" fill="#1565c0">— MA20</text><text x="490" y="82" font-size="10" fill="#7b1fa2">— MA60</text><text x="48" y="352" font-size="10" fill="#666666">資料：TWSE · 非即時 · 交叉需搭配量價確認</text></svg>