<svg xmlns="http://www.w3.org/2000/svg" viewBox="0 0 640 360" role="img" aria-label="2330 量價"><title>2330 量價</title><rect width="640" height="100%" fill="#ffffff"/><text x="48" y="22" font-size="14" font-weight="bold" fill="#212121">2330 台積電 — 量價圖</text><text x="48" y="38" font-size="10" fill="#666666">上：日 K · 下：成交量（紅漲黑跌）</text><line x1="54.4" y1="136.2" x2="54.4" y2="160.4" stroke="#212121" stroke-width="1"/><rect x="50.9" y="149.8" width="7.0" height="3.0" fill="#212121"/><line x1="67.2" y1="155.9" x2="67.2" y2="164.9" stroke="#e53935" stroke-width="1"/><rect x="63.7" y="161.9" width="7.0" height="1.5" fill="#e53935"/><line x1="80.0" y1="154.4" x2="80.0" y2="163.4" stroke="#e53935" stroke-width="1"/><rect x="76.5" y="161.9" width="7.0" height="1.0" fill="#e53935"/><line x1="92.8" y1="160.4" x2="92.8" y2="169.5" stroke="#212121" stroke-width="1"/><rect x="89.3" y="168.0" width="7.0" height="1.5" fill="#212121"/><line x1="105.6" y1="158.9" x2="105.6" y2="168.0" stroke="#212121" stroke-width="1"/><rect x="102.1" y="160.4" width="7.0" height="7.6" fill="#212121"/><line x1="118.4" y1="149.8" x2="118.4" y2="160.4" stroke="#e53935" stroke-width="1"/><rect x="114.9" y="151.3" width="7.0" height="1.5" fill="#e53935"/><line x1="131.2" y1="146.8" x2="131.2" y2="158.9" stroke="#e53935" stroke-width="1"/><rect x="127.7" y="152.9" width="7.0" height="4.5" fill="#e53935"/><line x1="144.0" y1="160.4" x2="144.0" y2="174.0" stroke="#e53935" stroke-width="1"/><rect x="140.5" y="160.4" width="7.0" height="12.1" fill="#e53935"/><line x1="156.8" y1="178.6" x2="156.8" y2="184.6" stroke="#e53935" stroke-width="1"/><rect x="153.3" y="180.1" width="7.0" height="1.5" fill="#e53935"/><line x1="169.6" y1="177.0" x2="169.6" y2="186.1" stroke="#e53935" stroke-width="1"/><rect x="166.1" y="177.0" width="7.0" height="7.6" fill="#e53935"/><line x1="182.4" y1="190.6" x2="182.4" y2="198.2" stroke="#e53935" stroke-width="1"/><rect x="178.9" y="190.6" width="7.0" height="3.0" fill="#e53935"/><line x1="195.2" y1="192.2" x2="195.2" y2="199.7" stroke="#e53935" stroke-width="1"/><rect x="191.7" y="192.2" width="7.0" height="4.5" fill="#e53935"/><line x1="208.0" y1="219.4" x2="208.0" y2="226.9" stroke="#e53935" stroke-width="1"/><rect x="204.5" y="219.4" width="7.0" height="3.0" fill="#e53935"/><line x1="220.8" y1="217.9" x2="220.8" y2="236.0" stroke="#212121" stroke-width="1"/><rect x="217.3" y="217.9" width="7.0" height="16.6" fill="#212121"/><line x1="233.6" y1="220.9" x2="233.6" y2="228.4" stroke="#e53935" stroke-width="1"/><rect x="230.1" y="220.9" width="7.0" height="4.5" fill="#e53935"/><line x1="246.4" y1="63.7" x2="246.4" y2="77.3" stroke="#e53935" stroke-width="1"/><rect x="242.9" y="69.7" width="7.0" height="4.5" fill="#e53935"/><line x1="259.2" y1="68.2" x2="259.2" y2="95.4" stroke="#212121" stroke-width="1"/><rect x="255.7" y="71.2" width="7.0" height="16.6" fill="#212121"/><line x1="272.0" y1="77.3" x2="272.0" y2="89.4" stroke="#212121" stroke-width="1"/><rect x="268.5" y="83.3" width="7.0" height="3.0" fill="#212121"/><line x1="284.8" y1="78.8" x2="284.8" y2="95.4" stroke="#212121" stroke-width="1"/><rect x="281.3" y="80.3" width="7.0" height="15.1" fill="#212121"/><line x1="297.6" y1="83.3" x2="297.6" y2="93.9" stroke="#e53935" stroke-width="1"/><rect x="294.1" y="83.3" width="7.0" height="10.6" fill="#e53935"/><line x1="310.4" y1="98.4" x2="310.4" y2="109.0" stroke="#e53935" stroke-width="1"/><rect x="306.9" y="99.9" width="7.0" height="3.0" fill="#e53935"/><line x1="323.2" y1="99.9" x2="323.2" y2="107.5" stroke="#212121" stroke-width="1"/><rect x="319.7" y="104.5" width="7.0" height="3.0" fill="#212121"/><line x1="336.0" y1="113.5" x2="336.0" y2="121.1" stroke="#212121" stroke-width="1"/><rect x="332.5" y="115.1" width="7.0" height="6.0" fill="#212121"/><line x1="348.8" y1="107.5" x2="348.8" y2="115.1" stroke="#212121" stroke-width="1"/><rect x="345.3" y="110.5" width="7.0" height="4.5" fill="#212121"/><line x1="361.6" y1="98.4" x2="361.6" y2="112.0" stroke="#e53935" stroke-width="1"/><rect x="358.1" y="104.5" width="7.0" height="4.5" fill="#e53935"/><line x1="374.4" y1="78.8" x2="374.4" y2="101.4" stroke="#212121" stroke-width="1"/><rect x="370.9" y="83.3" width="7.0" height="13.6" fill="#212121"/><line x1="387.2" y1="95.4" x2="387.2" y2="107.5" stroke="#e53935" stroke-width="1"/><rect x="383.7" y="95.4" width="7.0" height="6.0" fill="#e53935"/><line x1="400.0" y1="104.5" x2="400.0" y2="115.1" stroke="#e53935" stroke-width="1"/><rect x="396.5" y="110.5" width="7.0" height="4.5" fill="#e53935"/><line x1="412.8" y1="92.4" x2="412.8" y2="113.5" stroke="#e53935" stroke-width="1"/><rect x="409.3" y="99.9" width="7.0" height="6.0" fill="#e53935"/><line x1="425.6" y1="93.9" x2="425.6" y2="106.0" stroke="#212121" stroke-width="1"/><rect x="422.1" y="96.9" width="7.0" height="9.1" fill="#212121"/><line x1="438.4" y1="83.3" x2="438.4" y2="96.9" stroke="#212121" stroke-width="1"/><rect x="434.9" y="86.3" width="7.0" height="3.0" fill="#212121"/><line x1="451.2" y1="72.7" x2="451.2" y2="83.3" stroke="#212121" stroke-width="1"/><rect x="447.7" y="75.7" width="7.0" height="7.6" fill="#212121"/><line x1="464.0" y1="90.9" x2="464.0" y2="104.5" stroke="#e53935" stroke-width="1"/><rect x="460.5" y="101.4" width="7.0" height="1.0" fill="#e53935"/><line x1="476.8" y1="95.4" x2="476.8" y2="104.5" stroke="#e53935" stroke-width="1"/><rect x="473.3" y="101.4" width="7.0" height="1.0" fill="#e53935"/><line x1="489.6" y1="90.9" x2="489.6" y2="118.1" stroke="#e53935" stroke-width="1"/><rect x="486.1" y="93.9" width="7.0" height="22.7" fill="#e53935"/><line x1="502.4" y1="78.8" x2="502.4" y2="89.4" stroke="#212121" stroke-width="1"/><rect x="498.9" y="78.8" width="7.0" height="4.5" fill="#212121"/><line x1="515.2" y1="98.4" x2="515.2" y2="113.5" stroke="#e53935" stroke-width="1"/><rect x="511.7" y="101.4" width="7.0" height="3.0" fill="#e53935"/><line x1="528.0" y1="86.3" x2="528.0" y2="99.9" stroke="#212121" stroke-width="1"/><rect x="524.5" y="90.9" width="7.0" height="9.1" fill="#212121"/><line x1="540.8" y1="80.3" x2="540.8" y2="87.8" stroke="#e53935" stroke-width="1"/><rect x="537.3" y="84.8" width="7.0" height="1.0" fill="#e53935"/><line x1="553.6" y1="80.3" x2="553.6" y2="107.5" stroke="#e53935" stroke-width="1"/><rect x="550.1" y="87.8" width="7.0" height="19.7" fill="#e53935"/><line x1="566.4" y1="54.6" x2="566.4" y2="71.2" stroke="#212121" stroke-width="1"/><rect x="562.9" y="57.6" width="7.0" height="9.1" fill="#212121"/><line x1="579.2" y1="51.6" x2="579.2" y2="60.6" stroke="#e53935" stroke-width="1"/><rect x="575.7" y="60.6" width="7.0" height="1.0" fill="#e53935"/><line x1="592.0" y1="44.0" x2="592.0" y2="53.1" stroke="#e53935" stroke-width="1"/><rect x="588.5" y="48.5" width="7.0" height="1.0" fill="#e53935"/><line x1="604.8" y1="56.1" x2="604.8" y2="68.2" stroke="#212121" stroke-width="1"/><rect x="601.3" y="59.1" width="7.0" height="3.0" fill="#212121"/><line x1="617.6" y1="51.6" x2="617.6" y2="71.2" stroke="#e53935" stroke-width="1"/><rect x="614.1" y="69.7" width="7.0" height="1.0" fill="#e53935"/><line x1="48" y1="244" x2="624" y2="244" stroke="#dddddd"/><rect x="50.6" y="174.0" width="7.7" height="-86.0" fill="#212121" opacity="0.85"/><rect x="63.4" y="131.0" width="7.7" height="-43.0" fill="#e53935" opacity="0.85"/><rect x="76.2" y="131.9" width="7.7" height="-43.9" fill="#e53935" opacity="0.85"/><rect x="89.0" y="135.8" width="7.7" height="-47.8" fill="#212121" opacity="0.85"/><rect x="101.8" y="157.5" width="7.7" height="-69.5" fill="#212121" opacity="0.85"/><rect x="114.6" y="144.3" width="7.7" height="-56.3" fill="#e53935" opacity="0.85"/><rect x="127.4" y="161.3" width="7.7" height="-73.3" fill="#e53935" opacity="0.85"/><rect x="140.2" y="160.3" width="7.7" height="-72.3" fill="#e53935" opacity="0.85"/><rect x="153.0" y="137.9" width="7.7" height="-49.9" fill="#e53935" opacity="0.85"/><rect x="165.8" y="149.2" width="7.7" height="-61.2" fill="#e53935" opacity="0.85"/><rect x="178.6" y="144.4" width="7.7" height="-56.4" fill="#e53935" opacity="0.85"/><rect x="191.4" y="172.2" width="7.7" height="-84.2" fill="#e53935" opacity="0.85"/><rect x="204.2" y="119.1" width="7.7" height="-31.1" fill="#e53935" opacity="0.85"/><rect x="217.0" y="133.9" width="7.7" height="-45.9" fill="#212121" opacity="0.85"/><rect x="229.8" y="160.7" width="7.7" height="-72.7" fill="#e53935" opacity="0.85"/><rect x="242.6" y="252.0" width="7.7" height="-164.0" fill="#e53935" opacity="0.85"/><rect x="255.4" y="154.2" width="7.7" height="-66.2" fill="#212121" opacity="0.85"/><rect x="268.2" y="151.0" width="7.7" height="-63.0" fill="#212121" opacity="0.85"/><rect x="281.0" y="139.3" width="7.7" height="-51.3" fill="#212121" opacity="0.85"/><rect x="293.8" y="132.2" width="7.7" height="-44.2" fill="#e53935" opacity="0.85"/><rect x="306.6" y="130.0" width="7.7" height="-42.0" fill="#e53935" opacity="0.85"/><rect x="319.4" y="127.0" width="7.7" height="-39.0" fill="#212121" opacity="0.85"/><rect x="332.2" y="148.0" width="7.7" height="-60.0" fill="#212121" opacity="0.85"/><rect x="345.0" y="159.3" width="7.7" height="-71.3" fill="#212121" opacity="0.85"/><rect x="357.8" y="139.6" width="7.7" height="-51.6" fill="#e53935" opacity="0.85"/><rect x="370.6" y="141.8" width="7.7" height="-53.8" fill="#212121" opacity="0.85"/><rect x="383.4" y="149.9" width="7.7" height="-61.9" fill="#e53935" opacity="0.85"/><rect x="396.2" y="156.4" width="7.7" height="-68.4" fill="#e53935" opacity="0.85"/><rect x="409.0" y="172.9" width="7.7" height="-84.9" fill="#e53935" opacity="0.85"/><rect x="421.8" y="160.3" width="7.7" height="-72.3" fill="#212121" opacity="0.85"/><rect x="434.6" y="137.7" width="7.7" height="-49.7" fill="#212121" opacity="0.85"/><rect x="447.4" y="153.7" width="7.7" height="-65.7" fill="#212121" opacity="0.85"/><rect x="460.2" y="147.5" width="7.7" height="-59.5" fill="#e53935" opacity="0.85"/><rect x="473.0" y="129.7" width="7.7" height="-41.7" fill="#e53935" opacity="0.85"/><rect x="485.8" y="157.6" width="7.7" height="-69.6" fill="#e53935" opacity="0.85"/><rect x="498.6" y="129.2" width="7.7" height="-41.2" fill="#212121" opacity="0.85"/><rect x="511.4" y="160.6" width="7.7" height="-72.6" fill="#e53935" opacity="0.85"/><rect x="524.2" y="172.8" width="7.7" height="-84.8" fill="#212121" opacity="0.85"/><rect x="537.0" y="148.8" width="7.7" height="-60.8" fill="#e53935" opacity="0.85"/><rect x="549.8" y="169.8" width="7.7" height="-81.8" fill="#e53935" opacity="0.85"/><rect x="562.6" y="155.9" width="7.7" height="-67.9" fill="#212121" opacity="0.85"/><rect x="575.4" y="138.9" width="7.7" height="-50.9" fill="#e53935" opacity="0.85"/><rect x="588.2" y="133.7" width="7.7" height="-45.7" fill="#e53935" opacity="0.85"/><rect x="601.0" y="153.0" width="7.7" height="-65.0" fill="#212121" opacity="0.85"/><rect x="613.8" y="183.4" width="7.7" height="-95.4" fill="#e53935" opacity="0.85"/><text x="48" y="352" font-size="10" fill="#666666">資料：TWSE · 價漲量增 / 價漲量縮對照閱讀</text></svg>