<svg xmlns="http://www.w3.org/2000/svg" viewBox="0 0 640 360" role="img" aria-label="線圖比較"><title>線圖比較</title><rect width="640" height="100%" fill="#ffffff"/><text x="48" y="22" font-size="14" font-weight="bold" fill="#212121">線圖 vs 美國線 vs K 線（同一組收盤，教學示意）</text><text x="48" y="44" font-size="11" font-weight="bold" fill="#212121">線圖（收盤價）</text><rect x="48" y="50" width="192" height="200" fill="#fafafa" stroke="#dddddd"/><polyline fill="none" stroke="#1565c0" stroke-width="2" points="54.4,204.3 67.2,181.4 80.0,250.0 92.8,250.0 105.6,221.4 118.4,181.4 131.2,250.0 144.0,244.3 156.8,187.1 169.6,198.6 182.4,118.6 195.2,95.7 208.0,50.0 220.8,101.4 233.6,130.0"/><text x="248" y="44" font-size="11" font-weight="bold" fill="#212121">美國線</text><rect x="248" y="50" width="192" height="200" fill="#fafafa" stroke="#dddddd"/><line x1="254.4" y1="181.4" x2="254.4" y2="232.9" stroke="#666"/><line x1="250.4" y1="192.9" x2="254.4" y2="192.9" stroke="#666"/><line x1="254.4" y1="204.3" x2="258.4" y2="204.3" stroke="#666"/><line x1="267.2" y1="141.4" x2="267.2" y2="181.4" stroke="#666"/><line x1="263.2" y1="152.9" x2="267.2" y2="152.9" stroke="#666"/><line x1="267.2" y1="181.4" x2="271.2" y2="181.4" stroke="#666"/><line x1="280.0" y1="210.0" x2="280.0" y2="261.4" stroke="#666"/><line x1="276.0" y1="250.0" x2="280.0" y2="250.0" stroke="#666"/><line x1="280.0" y1="250.0" x2="284.0" y2="250.0" stroke="#666"/><line x1="292.8" y1="227.1" x2="292.8" y2="261.4" stroke="#666"/><line x1="288.8" y1="250.0" x2="292.8" y2="250.0" stroke="#666"/><line x1="292.8" y1="250.0" x2="296.8" y2="250.0" stroke="#666"/><line x1="305.6" y1="210.0" x2="305.6" y2="312.9" stroke="#666"/><line x1="301.6" y1="307.1" x2="305.6" y2="307.1" stroke="#666"/><line x1="305.6" y1="221.4" x2="309.6" y2="221.4" stroke="#666"/><line x1="318.4" y1="164.3" x2="318.4" y2="204.3" stroke="#666"/><line x1="314.4" y1="164.3" x2="318.4" y2="164.3" stroke="#666"/><line x1="318.4" y1="181.4" x2="322.4" y2="181.4" stroke="#666"/><line x1="331.2" y1="238.6" x2="331.2" y2="295.7" stroke="#666"/><line x1="327.2" y1="261.4" x2="331.2" y2="261.4" stroke="#666"/><line x1="331.2" y1="250.0" x2="335.2" y2="250.0" stroke="#666"/><line x1="344.0" y1="192.9" x2="344.0" y2="244.3" stroke="#666"/><line x1="340.0" y1="210.0" x2="344.0" y2="210.0" stroke="#666"/><line x1="344.0" y1="244.3" x2="348.0" y2="244.3" stroke="#666"/><line x1="356.8" y1="170.0" x2="356.8" y2="198.6" stroke="#666"/><line x1="352.8" y1="187.1" x2="356.8" y2="187.1" stroke="#666"/><line x1="356.8" y1="187.1" x2="360.8" y2="187.1" stroke="#666"/><line x1="369.6" y1="170.0" x2="369.6" y2="272.9" stroke="#666"/><line x1="365.6" y1="272.9" x2="369.6" y2="272.9" stroke="#666"/><line x1="369.6" y1="198.6" x2="373.6" y2="198.6" stroke="#666"/><line x1="382.4" y1="72.9" x2="382.4" y2="135.7" stroke="#666"/><line x1="378.4" y1="84.3" x2="382.4" y2="84.3" stroke="#666"/><line x1="382.4" y1="118.6" x2="386.4" y2="118.6" stroke="#666"/><line x1="395.2" y1="61.4" x2="395.2" y2="95.7" stroke="#666"/><line x1="391.2" y1="95.7" x2="395.2" y2="95.7" stroke="#666"/><line x1="395.2" y1="95.7" x2="399.2" y2="95.7" stroke="#666"/><line x1="408.0" y1="32.9" x2="408.0" y2="67.1" stroke="#666"/><line x1="404.0" y1="50.0" x2="408.0" y2="50.0" stroke="#666"/><line x1="408.0" y1="50.0" x2="412.0" y2="50.0" stroke="#666"/><line x1="420.8" y1="78.6" x2="420.8" y2="124.3" stroke="#666"/><line x1="416.8" y1="90.0" x2="420.8" y2="90.0" stroke="#666"/><line x1="420.8" y1="101.4" x2="424.8" y2="101.4" stroke="#666"/><line x1="433.6" y1="61.4" x2="433.6" y2="135.7" stroke="#666"/><line x1="429.6" y1="130.0" x2="433.6" y2="130.0" stroke="#666"/><line x1="433.6" y1="130.0" x2="437.6" y2="130.0" stroke="#666"/><text x="448" y="44" font-size="11" font-weight="bold" fill="#212121">K 線</text><rect x="448" y="50" width="192" height="200" fill="#fafafa" stroke="#dddddd"/><line x1="454.4" y1="181.4" x2="454.4" y2="232.9" stroke="#212121"/><rect x="450.9" y="192.9" width="7.0" height="11.4" fill="#212121"/><line x1="467.2" y1="141.4" x2="467.2" y2="181.4" stroke="#212121"/><rect x="463.7" y="152.9" width="7.0" height="28.6" fill="#212121"/><line x1="480.0" y1="210.0" x2="480.0" y2="261.4" stroke="#e53935"/><rect x="476.5" y="250.0" width="7.0" height="1.0" fill="#e53935"/><line x1="492.8" y1="227.1" x2="492.8" y2="261.4" stroke="#e53935"/><rect x="489.3" y="250.0" width="7.0" height="1.0" fill="#e53935"/><line x1="505.6" y1="210.0" x2="505.6" y2="312.9" stroke="#e53935"/><rect x="502.1" y="221.4" width="7.0" height="85.7" fill="#e53935"/><line x1="518.4" y1="164.3" x2="518.4" y2="204.3" stroke="#212121"/><rect x="514.9" y="164.3" width="7.0" height="17.1" fill="#212121"/><line x1="531.2" y1="238.6" x2="531.2" y2="295.7" stroke="#e53935"/><rect x="527.7" y="250.0" width="7.0" height="11.4" fill="#e53935"/><line x1="544.0" y1="192.9" x2="544.0" y2="244.3" stroke="#212121"/><rect x="540.5" y="210.0" width="7.0" height="34.3" fill="#212121"/><line x1="556.8" y1="170.0" x2="556.8" y2="198.6" stroke="#e53935"/><rect x="553.3" y="187.1" width="7.0" height="1.0" fill="#e53935"/><line x1="569.6" y1="170.0" x2="569.6" y2="272.9" stroke="#e53935"/><rect x="566.1" y="198.6" width="7.0" height="74.3" fill="#e53935"/><line x1="582.4" y1="72.9" x2="582.4" y2="135.7" stroke="#212121"/><rect x="578.9" y="84.3" width="7.0" height="34.3" fill="#212121"/><line x1="595.2" y1="61.4" x2="595.2" y2="95.7" stroke="#e53935"/><rect x="591.7" y="95.7" width="7.0" height="1.0" fill="#e53935"/><line x1="608.0" y1="32.9" x2="608.0" y2="67.1" stroke="#e53935"/><rect x="604.5" y="50.0" width="7.0" height="1.0" fill="#e53935"/><line x1="620.8" y1="78.6" x2="620.8" y2="124.3" stroke="#212121"/><rect x="617.3" y="90.0" width="7.0" height="11.4" fill="#212121"/><line x1="633.6" y1="61.4" x2="633.6" y2="135.7" stroke="#e53935"/><rect x="630.1" y="130.0" width="7.0" height="1.0" fill="#e53935"/><text x="48" y="352" font-size="10" fill="#666666">資料：2330 TWSE 近 15 日 · 教學用</text></svg>