<svg xmlns="http://www.w3.org/2000/svg" viewBox="0 0 640 380" role="img" aria-label="ETF vs 個股"><title>ETF vs 個股</title><rect width="640" height="100%" fill="#ffffff"/><text x="48" y="22" font-size="14" font-weight="bold" fill="#212121">個股 vs ETF 波動示意（合成）</text><text x="48" y="38" font-size="10" fill="#666666">左：單一個股 · 右：0050 類 ETF</text><text x="48" y="48" font-size="11" font-weight="bold">個股（集中風險）</text><rect x="48" y="56" width="284" height="240" fill="#fafafa" stroke="#dddddd"/><polyline fill="none" stroke="#e53935" stroke-width="2" points="52.7,218.0 62.2,209.1 71.7,200.6 81.1,193.2 90.6,187.2 100.1,183.0 109.5,180.7 119.0,180.5 128.5,182.4 137.9,186.2 147.4,191.6 156.9,198.2 166.3,205.7 175.8,213.4 185.3,221.0 194.7,227.8 204.2,233.3 213.7,237.4 223.1,239.5 232.6,239.6 242.1,237.6 251.5,233.6 261.0,227.8 270.5,220.6 279.9,212.3 289.4,203.4 298.9,194.4 308.3,185.9 317.8,178.3 327.3,172.1"/><text x="348" y="48" font-size="11" font-weight="bold">0050（分散大盤）</text><rect x="348" y="56" width="284" height="240" fill="#fafafa" stroke="#dddddd"/><polyline fill="none" stroke="#1565c0" stroke-width="2" points="352.7,218.0 362.2,213.6 371.7,209.4 381.1,205.6 390.6,202.4 400.1,199.7 409.5,197.9 419.0,196.8 428.5,196.5 437.9,196.9 447.4,197.9 456.9,199.3 466.3,201.1 475.8,203.0 485.3,204.8 494.7,206.3 504.2,207.4 513.7,207.9 523.1,207.6 532.6,206.7 542.1,204.9 551.5,202.4 561.0,199.2 570.5,195.4 579.9,191.3 589.4,186.9 598.9,182.5 608.3,178.3 617.8,174.4 627.3,171.1"/><text x="48" y="372" font-size="10" fill="#666666">合成示意 · ETF 波動通常較個股平滑</text></svg>