<svg xmlns="http://www.w3.org/2000/svg" viewBox="0 0 640 380" role="img" aria-label="定額案例"><title>定額案例</title><rect width="640" height="100%" fill="#ffffff"/><text x="48" y="22" font-size="14" font-weight="bold" fill="#212121">0050 定期定額示意（合成長期走勢）</text><text x="48" y="38" font-size="10" fill="#666666">▼ 標記為定額買進日 · 回檔時仍持續扣款</text><line x1="54.0" y1="307.7" x2="54.0" y2="321.8" stroke="#212121" stroke-width="1"/><rect x="50.7" y="313.7" width="6.6" height="2.2" fill="#212121"/><line x1="66.0" y1="289.8" x2="66.0" y2="304.6" stroke="#e53935" stroke-width="1"/><rect x="62.7" y="295.8" width="6.6" height="3.0" fill="#e53935"/><line x1="78.0" y1="277.9" x2="78.0" y2="292.0" stroke="#212121" stroke-width="1"/><rect x="74.7" y="283.8" width="6.6" height="2.2" fill="#212121"/><line x1="90.0" y1="260.2" x2="90.0" y2="275.0" stroke="#e53935" stroke-width="1"/><rect x="86.7" y="266.1" width="6.6" height="3.0" fill="#e53935"/><line x1="102.0" y1="248.5" x2="102.0" y2="262.6" stroke="#212121" stroke-width="1"/><rect x="98.7" y="254.5" width="6.6" height="2.2" fill="#212121"/><line x1="114.0" y1="231.2" x2="114.0" y2="246.0" stroke="#e53935" stroke-width="1"/><rect x="110.7" y="237.1" width="6.6" height="3.0" fill="#e53935"/><line x1="126.0" y1="220.1" x2="126.0" y2="234.2" stroke="#212121" stroke-width="1"/><rect x="122.7" y="226.0" width="6.6" height="2.2" fill="#212121"/><line x1="138.0" y1="203.4" x2="138.0" y2="218.2" stroke="#e53935" stroke-width="1"/><rect x="134.7" y="209.3" width="6.6" height="3.0" fill="#e53935"/><line x1="150.0" y1="193.0" x2="150.0" y2="207.1" stroke="#212121" stroke-width="1"/><rect x="146.7" y="198.9" width="6.6" height="2.2" fill="#212121"/><line x1="162.0" y1="177.1" x2="162.0" y2="191.9" stroke="#e53935" stroke-width="1"/><rect x="158.7" y="183.1" width="6.6" height="3.0" fill="#e53935"/><line x1="174.0" y1="167.7" x2="174.0" y2="181.8" stroke="#212121" stroke-width="1"/><rect x="170.7" y="173.6" width="6.6" height="2.2" fill="#212121"/><line x1="186.0" y1="152.9" x2="186.0" y2="167.7" stroke="#e53935" stroke-width="1"/><rect x="182.7" y="158.8" width="6.6" height="3.0" fill="#e53935"/><line x1="198.0" y1="144.5" x2="198.0" y2="158.6" stroke="#212121" stroke-width="1"/><rect x="194.7" y="150.5" width="6.6" height="2.2" fill="#212121"/><line x1="210.0" y1="130.9" x2="210.0" y2="145.7" stroke="#e53935" stroke-width="1"/><rect x="206.7" y="136.8" width="6.6" height="3.0" fill="#e53935"/><line x1="222.0" y1="123.9" x2="222.0" y2="137.9" stroke="#212121" stroke-width="1"/><rect x="218.7" y="129.8" width="6.6" height="2.2" fill="#212121"/><line x1="234.0" y1="111.6" x2="234.0" y2="126.4" stroke="#e53935" stroke-width="1"/><rect x="230.7" y="117.5" width="6.6" height="3.0" fill="#e53935"/><line x1="246.0" y1="106.0" x2="246.0" y2="120.1" stroke="#212121" stroke-width="1"/><rect x="242.7" y="111.9" width="6.6" height="2.2" fill="#212121"/><line x1="258.0" y1="95.2" x2="258.0" y2="110.0" stroke="#e53935" stroke-width="1"/><rect x="254.7" y="101.2" width="6.6" height="3.0" fill="#e53935"/><line x1="270.0" y1="91.2" x2="270.0" y2="105.2" stroke="#212121" stroke-width="1"/><rect x="266.7" y="97.1" width="6.6" height="2.2" fill="#212121"/><line x1="282.0" y1="82.0" x2="282.0" y2="96.8" stroke="#e53935" stroke-width="1"/><rect x="278.7" y="87.9" width="6.6" height="3.0" fill="#e53935"/><line x1="294.0" y1="79.6" x2="294.0" y2="93.6" stroke="#212121" stroke-width="1"/><rect x="290.7" y="85.5" width="6.6" height="2.2" fill="#212121"/><line x1="306.0" y1="80.9" x2="306.0" y2="95.7" stroke="#e53935" stroke-width="1"/><rect x="302.7" y="86.9" width="6.6" height="3.0" fill="#e53935"/><line x1="318.0" y1="89.1" x2="318.0" y2="103.1" stroke="#212121" stroke-width="1"/><rect x="314.7" y="95.0" width="6.6" height="2.2" fill="#212121"/><line x1="330.0" y1="92.1" x2="330.0" y2="106.9" stroke="#e53935" stroke-width="1"/><rect x="326.7" y="98.1" width="6.6" height="3.0" fill="#e53935"/><line x1="342.0" y1="102.0" x2="342.0" y2="116.0" stroke="#212121" stroke-width="1"/><rect x="338.7" y="107.9" width="6.6" height="2.2" fill="#212121"/><line x1="354.0" y1="106.8" x2="354.0" y2="121.6" stroke="#e53935" stroke-width="1"/><rect x="350.7" y="112.7" width="6.6" height="3.0" fill="#e53935"/><line x1="366.0" y1="118.3" x2="366.0" y2="132.4" stroke="#212121" stroke-width="1"/><rect x="362.7" y="124.2" width="6.6" height="2.2" fill="#212121"/><line x1="378.0" y1="124.8" x2="378.0" y2="139.6" stroke="#e53935" stroke-width="1"/><rect x="374.7" y="130.7" width="6.6" height="3.0" fill="#e53935"/><line x1="390.0" y1="138.0" x2="390.0" y2="152.1" stroke="#212121" stroke-width="1"/><rect x="386.7" y="143.9" width="6.6" height="2.2" fill="#212121"/><line x1="402.0" y1="66.2" x2="402.0" y2="81.0" stroke="#e53935" stroke-width="1"/><rect x="398.7" y="72.1" width="6.6" height="3.0" fill="#e53935"/><line x1="414.0" y1="72.1" x2="414.0" y2="86.2" stroke="#212121" stroke-width="1"/><rect x="410.7" y="78.1" width="6.6" height="2.2" fill="#212121"/><line x1="426.0" y1="72.9" x2="426.0" y2="87.7" stroke="#e53935" stroke-width="1"/><rect x="422.7" y="78.8" width="6.6" height="3.0" fill="#e53935"/><line x1="438.0" y1="80.3" x2="438.0" y2="94.4" stroke="#212121" stroke-width="1"/><rect x="434.7" y="86.3" width="6.6" height="2.2" fill="#212121"/><line x1="450.0" y1="82.6" x2="450.0" y2="97.4" stroke="#e53935" stroke-width="1"/><rect x="446.7" y="88.5" width="6.6" height="3.0" fill="#e53935"/><line x1="462.0" y1="91.4" x2="462.0" y2="105.4" stroke="#212121" stroke-width="1"/><rect x="458.7" y="97.3" width="6.6" height="2.2" fill="#212121"/><line x1="474.0" y1="94.9" x2="474.0" y2="109.7" stroke="#e53935" stroke-width="1"/><rect x="470.7" y="100.8" width="6.6" height="3.0" fill="#e53935"/><line x1="486.0" y1="104.9" x2="486.0" y2="119.0" stroke="#212121" stroke-width="1"/><rect x="482.7" y="110.8" width="6.6" height="2.2" fill="#212121"/><line x1="498.0" y1="109.6" x2="498.0" y2="124.4" stroke="#e53935" stroke-width="1"/><rect x="494.7" y="115.5" width="6.6" height="3.0" fill="#e53935"/><line x1="510.0" y1="120.6" x2="510.0" y2="134.7" stroke="#212121" stroke-width="1"/><rect x="506.7" y="126.6" width="6.6" height="2.2" fill="#212121"/><line x1="522.0" y1="126.2" x2="522.0" y2="141.0" stroke="#e53935" stroke-width="1"/><rect x="518.7" y="132.2" width="6.6" height="3.0" fill="#e53935"/><line x1="534.0" y1="138.2" x2="534.0" y2="152.2" stroke="#212121" stroke-width="1"/><rect x="530.7" y="144.1" width="6.6" height="2.2" fill="#212121"/><line x1="546.0" y1="144.5" x2="546.0" y2="159.3" stroke="#e53935" stroke-width="1"/><rect x="542.7" y="150.4" width="6.6" height="3.0" fill="#e53935"/><line x1="558.0" y1="157.1" x2="558.0" y2="171.1" stroke="#212121" stroke-width="1"/><rect x="554.7" y="163.0" width="6.6" height="2.2" fill="#212121"/><line x1="570.0" y1="164.0" x2="570.0" y2="178.8" stroke="#e53935" stroke-width="1"/><rect x="566.7" y="169.9" width="6.6" height="3.0" fill="#e53935"/><line x1="582.0" y1="177.0" x2="582.0" y2="191.0" stroke="#212121" stroke-width="1"/><rect x="578.7" y="182.9" width="6.6" height="2.2" fill="#212121"/><line x1="594.0" y1="184.2" x2="594.0" y2="199.0" stroke="#e53935" stroke-width="1"/><rect x="590.7" y="190.1" width="6.6" height="3.0" fill="#e53935"/><line x1="606.0" y1="197.3" x2="606.0" y2="211.4" stroke="#212121" stroke-width="1"/><rect x="602.7" y="203.3" width="6.6" height="2.2" fill="#212121"/><line x1="618.0" y1="204.6" x2="618.0" y2="219.4" stroke="#e53935" stroke-width="1"/><rect x="614.7" y="210.5" width="6.6" height="3.0" fill="#e53935"/><polygon points="54,328 49,318 59,318" fill="#00897b"/><polygon points="126,240 121,230 131,230" fill="#00897b"/><polygon points="198,165 193,155 203,155" fill="#00897b"/><polygon points="270,111 265,101 275,101" fill="#00897b"/><polygon points="342,122 337,112 347,112" fill="#00897b"/><polygon points="414,92 409,82 419,82" fill="#00897b"/><polygon points="486,125 481,115 491,115" fill="#00897b"/><polygon points="558,177 553,167 563,167" fill="#00897b"/><text x="48" y="372" font-size="10" fill="#666666">合成教學數據 · 閒錢定額 · 非保證獲利</text></svg>