<svg xmlns="http://www.w3.org/2000/svg" viewBox="0 0 640 380" role="img" aria-label="法人連買案例"><title>法人連買案例</title><rect width="640" height="100%" fill="#ffffff"/><text x="48" y="22" font-size="14" font-weight="bold" fill="#212121">案例：三大法人連續買超（合成數據）</text><text x="48" y="38" font-size="10" fill="#666666">C 公司 · 法人連買 · 股價緩漲</text><line x1="105.6" y1="165.0" x2="105.6" y2="198.0" stroke="#e53935" stroke-width="1"/><rect x="73.9" y="176.0" width="63.4" height="11.0" fill="#e53935"/><line x1="220.8" y1="149.6" x2="220.8" y2="180.4" stroke="#e53935" stroke-width="1"/><rect x="189.1" y="154.0" width="63.4" height="22.0" fill="#e53935"/><line x1="336.0" y1="125.4" x2="336.0" y2="158.4" stroke="#e53935" stroke-width="1"/><rect x="304.3" y="132.0" width="63.4" height="22.0" fill="#e53935"/><line x1="451.2" y1="99.0" x2="451.2" y2="136.4" stroke="#e53935" stroke-width="1"/><rect x="419.5" y="110.0" width="63.4" height="22.0" fill="#e53935"/><line x1="566.4" y1="79.2" x2="566.4" y2="114.4" stroke="#e53935" stroke-width="1"/><rect x="534.7" y="88.0" width="63.4" height="22.0" fill="#e53935"/><line x1="48" y1="228" x2="624" y2="228" stroke="#dddddd"/><text x="52" y="242" font-size="10" fill="#e53935">外資累計買超（張 · 往上＝買超）</text><circle cx="105.6" cy="325.3" r="3" fill="#e53935"/><text x="105.6" y="319.3" font-size="8" fill="#e53935" text-anchor="middle">550</text><circle cx="220.8" cy="309.7" r="3" fill="#e53935"/><text x="220.8" y="303.7" font-size="8" fill="#e53935" text-anchor="middle">930</text><circle cx="336.0" cy="299.8" r="3" fill="#e53935"/><text x="336.0" y="293.8" font-size="8" fill="#e53935" text-anchor="middle">1170</text><circle cx="451.2" cy="271.0" r="3" fill="#e53935"/><text x="451.2" y="265.0" font-size="8" fill="#e53935" text-anchor="middle">1870</text><circle cx="566.4" cy="252.0" r="3" fill="#e53935"/><text x="566.4" y="246.0" font-size="8" fill="#e53935" text-anchor="middle">2330</text><polyline fill="none" stroke="#e53935" stroke-width="2" points="105.6,325.3 220.8,309.7 336.0,299.8 451.2,271.0 566.4,252.0"/><text x="48" y="372" font-size="10" fill="#666666">合成教學數據 · 連續性與價量配合是重點</text></svg>