<svg xmlns="http://www.w3.org/2000/svg" viewBox="0 0 640 380" role="img" aria-label="MACD背離案例"><title>MACD背離案例</title><rect width="640" height="100%" fill="#ffffff"/><text x="48" y="22" font-size="14" font-weight="bold" fill="#212121">案例：MACD 頂背離（合成數據）</text><text x="48" y="38" font-size="10" fill="#666666">F 公司 · 價格 100→105 新高 · DIF 未創高</text><line x1="60.5" y1="187.2" x2="60.5" y2="197.6" stroke="#e53935" stroke-width="1"/><rect x="53.6" y="191.6" width="13.8" height="2.7" fill="#e53935"/><line x1="85.6" y1="174.7" x2="85.6" y2="183.9" stroke="#212121" stroke-width="1"/><rect x="78.7" y="179.0" width="13.8" height="1.6" fill="#212121"/><line x1="110.6" y1="165.4" x2="110.6" y2="175.8" stroke="#e53935" stroke-width="1"/><rect x="103.7" y="169.8" width="13.8" height="2.7" fill="#e53935"/><line x1="135.7" y1="169.2" x2="135.7" y2="178.5" stroke="#212121" stroke-width="1"/><rect x="128.8" y="173.6" width="13.8" height="1.6" fill="#212121"/><line x1="160.7" y1="154.5" x2="160.7" y2="164.9" stroke="#e53935" stroke-width="1"/><rect x="153.8" y="158.9" width="13.8" height="2.7" fill="#e53935"/><line x1="185.7" y1="142.0" x2="185.7" y2="151.3" stroke="#212121" stroke-width="1"/><rect x="178.9" y="146.4" width="13.8" height="1.6" fill="#212121"/><line x1="210.8" y1="132.8" x2="210.8" y2="143.1" stroke="#e53935" stroke-width="1"/><rect x="203.9" y="137.1" width="13.8" height="2.7" fill="#e53935"/><line x1="235.8" y1="136.6" x2="235.8" y2="145.8" stroke="#212121" stroke-width="1"/><rect x="228.9" y="140.9" width="13.8" height="1.6" fill="#212121"/><line x1="260.9" y1="121.9" x2="260.9" y2="132.2" stroke="#e53935" stroke-width="1"/><rect x="254.0" y="126.2" width="13.8" height="2.7" fill="#e53935"/><line x1="285.9" y1="109.3" x2="285.9" y2="118.6" stroke="#212121" stroke-width="1"/><rect x="279.0" y="113.7" width="13.8" height="1.6" fill="#212121"/><line x1="311.0" y1="100.1" x2="311.0" y2="110.4" stroke="#e53935" stroke-width="1"/><rect x="304.1" y="104.4" width="13.8" height="2.7" fill="#e53935"/><line x1="336.0" y1="103.9" x2="336.0" y2="113.2" stroke="#212121" stroke-width="1"/><rect x="329.1" y="108.3" width="13.8" height="1.6" fill="#212121"/><line x1="361.0" y1="89.2" x2="361.0" y2="99.5" stroke="#e53935" stroke-width="1"/><rect x="354.2" y="93.6" width="13.8" height="2.7" fill="#e53935"/><line x1="386.1" y1="76.7" x2="386.1" y2="85.9" stroke="#212121" stroke-width="1"/><rect x="379.2" y="81.0" width="13.8" height="1.6" fill="#212121"/><line x1="411.1" y1="83.8" x2="411.1" y2="94.1" stroke="#e53935" stroke-width="1"/><rect x="404.2" y="88.1" width="13.8" height="2.7" fill="#e53935"/><line x1="436.2" y1="71.2" x2="436.2" y2="80.5" stroke="#212121" stroke-width="1"/><rect x="429.3" y="75.6" width="13.8" height="1.6" fill="#212121"/><line x1="461.2" y1="62.0" x2="461.2" y2="72.3" stroke="#e53935" stroke-width="1"/><rect x="454.3" y="66.3" width="13.8" height="2.7" fill="#e53935"/><line x1="486.3" y1="65.8" x2="486.3" y2="75.0" stroke="#212121" stroke-width="1"/><rect x="479.4" y="70.1" width="13.8" height="1.6" fill="#212121"/><line x1="511.3" y1="56.5" x2="511.3" y2="66.9" stroke="#e53935" stroke-width="1"/><rect x="504.4" y="60.9" width="13.8" height="2.7" fill="#e53935"/><line x1="536.3" y1="49.4" x2="536.3" y2="58.7" stroke="#212121" stroke-width="1"/><rect x="529.5" y="53.8" width="13.8" height="1.6" fill="#212121"/><line x1="561.4" y1="56.5" x2="561.4" y2="66.9" stroke="#e53935" stroke-width="1"/><rect x="554.5" y="60.9" width="13.8" height="2.7" fill="#e53935"/><line x1="586.4" y1="60.3" x2="586.4" y2="69.6" stroke="#212121" stroke-width="1"/><rect x="579.5" y="64.7" width="13.8" height="1.6" fill="#212121"/><line x1="611.5" y1="67.4" x2="611.5" y2="77.8" stroke="#e53935" stroke-width="1"/><rect x="604.6" y="71.8" width="13.8" height="2.7" fill="#e53935"/><text x="386.1" y="58.0" font-size="9" fill="#e53935" text-anchor="middle">高點1 ~100</text><text x="536.3" y="58.0" font-size="9" fill="#e53935" text-anchor="middle">高點2 ~105</text><line x1="48" y1="209" x2="624" y2="209" stroke="#dddddd"/><text x="386.1" y="229" font-size="9" fill="#7b1fa2" text-anchor="middle">DIF 2.5</text><text x="536.3" y="229" font-size="9" fill="#7b1fa2" text-anchor="middle">DIF 2.0↓</text><text x="52" y="245" font-size="10" fill="#e53935">頂背離：價新高、MACD 未新高</text><text x="48" y="372" font-size="10" fill="#666666">合成教學數據 · 背離是警訊非賣出指令</text></svg>