<svg xmlns="http://www.w3.org/2000/svg" viewBox="0 0 640 380" role="img" aria-label="估值陷阱案例"><title>估值陷阱案例</title><rect width="640" height="100%" fill="#ffffff"/><text x="48" y="22" font-size="14" font-weight="bold" fill="#212121">案例：高殖利率的估值陷阱（合成數據）</text><text x="48" y="38" font-size="10" fill="#666666">E 公司 · 股價↓ 但殖利率↑</text><rect x="56" y="70" width="528" height="230" fill="#fafafa" stroke="#dddddd"/><polyline fill="none" stroke="#e53935" stroke-width="2" points="93.7,98.8 169.1,133.2 244.6,167.8 320.0,196.5 395.4,225.2 470.9,254.0 546.3,271.2"/><polyline fill="none" stroke="#1565c0" stroke-width="2" stroke-dasharray="5 3" points="93.7,267.1 169.1,240.9 244.6,214.6 320.0,188.3 395.4,155.4 470.9,122.6 546.3,102.9"/><text x="60" y="86" font-size="10" fill="#e53935">— 股價（左）</text><text x="60" y="100" font-size="10" fill="#1565c0">- - 殖利率（右）</text><text x="93.7" y="316.0" font-size="8" fill="#666666" text-anchor="middle">1月</text><text x="169.1" y="316.0" font-size="8" fill="#666666" text-anchor="middle">3月</text><text x="244.6" y="316.0" font-size="8" fill="#666666" text-anchor="middle">5月</text><text x="320.0" y="316.0" font-size="8" fill="#666666" text-anchor="middle">7月</text><text x="395.4" y="316.0" font-size="8" fill="#666666" text-anchor="middle">9月</text><text x="470.9" y="316.0" font-size="8" fill="#666666" text-anchor="middle">11月</text><text x="546.3" y="316.0" font-size="8" fill="#666666" text-anchor="middle">次年</text><text x="416" y="290" font-size="10" fill="#ff9800">價跌墊高殖利率 ≠ 便宜</text><text x="48" y="372" font-size="10" fill="#666666">合成教學數據 · 高殖利率可能是價值陷阱</text></svg>