<svg xmlns="http://www.w3.org/2000/svg" viewBox="0 0 640 380" role="img" aria-label="弱勢反彈接盤案例"><title>弱勢反彈接盤案例</title><rect width="640" height="100%" fill="#ffffff"/><text x="48" y="22" font-size="14" font-weight="bold" fill="#212121">案例：弱勢反彈接盤陷阱（合成數據）</text><text x="48" y="38" font-size="10" fill="#666666">H 公司 · 下跌中零軸下金叉 · 反彈不過前高後續跌</text><line x1="54.4" y1="47.6" x2="54.4" y2="55.4" stroke="#212121" stroke-width="1"/><rect x="50.9" y="50.8" width="7.0" height="2.1" fill="#212121"/><line x1="67.2" y1="54.7" x2="67.2" y2="61.8" stroke="#e53935" stroke-width="1"/><rect x="63.7" y="57.9" width="7.0" height="1.4" fill="#e53935"/><line x1="80.0" y1="55.4" x2="80.0" y2="63.3" stroke="#212121" stroke-width="1"/><rect x="76.5" y="58.6" width="7.0" height="2.1" fill="#212121"/><line x1="92.8" y1="58.3" x2="92.8" y2="65.4" stroke="#e53935" stroke-width="1"/><rect x="89.3" y="61.5" width="7.0" height="1.4" fill="#e53935"/><line x1="105.6" y1="61.1" x2="105.6" y2="69.0" stroke="#212121" stroke-width="1"/><rect x="102.1" y="64.3" width="7.0" height="2.1" fill="#212121"/><line x1="118.4" y1="66.1" x2="118.4" y2="73.2" stroke="#e53935" stroke-width="1"/><rect x="114.9" y="69.3" width="7.0" height="1.4" fill="#e53935"/><line x1="131.2" y1="64.7" x2="131.2" y2="72.5" stroke="#212121" stroke-width="1"/><rect x="127.7" y="67.9" width="7.0" height="2.1" fill="#212121"/><line x1="144.0" y1="71.8" x2="144.0" y2="78.9" stroke="#e53935" stroke-width="1"/><rect x="140.5" y="75.0" width="7.0" height="1.4" fill="#e53935"/><line x1="156.8" y1="72.5" x2="156.8" y2="80.4" stroke="#212121" stroke-width="1"/><rect x="153.3" y="75.7" width="7.0" height="2.1" fill="#212121"/><line x1="169.6" y1="75.4" x2="169.6" y2="82.5" stroke="#e53935" stroke-width="1"/><rect x="166.1" y="78.6" width="7.0" height="1.4" fill="#e53935"/><line x1="182.4" y1="78.2" x2="182.4" y2="86.1" stroke="#212121" stroke-width="1"/><rect x="178.9" y="81.4" width="7.0" height="2.1" fill="#212121"/><line x1="195.2" y1="83.2" x2="195.2" y2="90.3" stroke="#e53935" stroke-width="1"/><rect x="191.7" y="86.4" width="7.0" height="1.4" fill="#e53935"/><line x1="208.0" y1="81.8" x2="208.0" y2="89.6" stroke="#212121" stroke-width="1"/><rect x="204.5" y="85.0" width="7.0" height="2.1" fill="#212121"/><line x1="220.8" y1="88.9" x2="220.8" y2="96.0" stroke="#e53935" stroke-width="1"/><rect x="217.3" y="92.1" width="7.0" height="1.4" fill="#e53935"/><line x1="233.6" y1="89.6" x2="233.6" y2="97.5" stroke="#212121" stroke-width="1"/><rect x="230.1" y="92.8" width="7.0" height="2.1" fill="#212121"/><line x1="246.4" y1="92.5" x2="246.4" y2="99.6" stroke="#e53935" stroke-width="1"/><rect x="242.9" y="95.7" width="7.0" height="1.4" fill="#e53935"/><line x1="259.2" y1="95.3" x2="259.2" y2="103.2" stroke="#212121" stroke-width="1"/><rect x="255.7" y="98.5" width="7.0" height="2.1" fill="#212121"/><line x1="272.0" y1="100.3" x2="272.0" y2="107.5" stroke="#e53935" stroke-width="1"/><rect x="268.5" y="103.5" width="7.0" height="1.4" fill="#e53935"/><line x1="284.8" y1="98.9" x2="284.8" y2="106.7" stroke="#212121" stroke-width="1"/><rect x="281.3" y="102.1" width="7.0" height="2.1" fill="#212121"/><line x1="297.6" y1="106.0" x2="297.6" y2="113.2" stroke="#e53935" stroke-width="1"/><rect x="294.1" y="109.2" width="7.0" height="1.4" fill="#e53935"/><line x1="310.4" y1="106.7" x2="310.4" y2="114.6" stroke="#212121" stroke-width="1"/><rect x="306.9" y="110.0" width="7.0" height="2.1" fill="#212121"/><line x1="323.2" y1="109.6" x2="323.2" y2="116.7" stroke="#e53935" stroke-width="1"/><rect x="319.7" y="112.8" width="7.0" height="1.4" fill="#e53935"/><line x1="336.0" y1="112.4" x2="336.0" y2="120.3" stroke="#212121" stroke-width="1"/><rect x="332.5" y="115.7" width="7.0" height="2.1" fill="#212121"/><line x1="348.8" y1="117.4" x2="348.8" y2="124.6" stroke="#e53935" stroke-width="1"/><rect x="345.3" y="120.6" width="7.0" height="1.4" fill="#e53935"/><line x1="361.6" y1="116.0" x2="361.6" y2="123.9" stroke="#212121" stroke-width="1"/><rect x="358.1" y="119.2" width="7.0" height="2.1" fill="#212121"/><line x1="374.4" y1="123.1" x2="374.4" y2="130.3" stroke="#e53935" stroke-width="1"/><rect x="370.9" y="126.4" width="7.0" height="1.4" fill="#e53935"/><line x1="387.2" y1="123.9" x2="387.2" y2="131.7" stroke="#212121" stroke-width="1"/><rect x="383.7" y="127.1" width="7.0" height="2.1" fill="#212121"/><line x1="400.0" y1="126.7" x2="400.0" y2="133.8" stroke="#e53935" stroke-width="1"/><rect x="396.5" y="129.9" width="7.0" height="1.4" fill="#e53935"/><line x1="412.8" y1="134.6" x2="412.8" y2="142.4" stroke="#212121" stroke-width="1"/><rect x="409.3" y="137.8" width="7.0" height="2.1" fill="#212121"/><line x1="425.6" y1="143.8" x2="425.6" y2="151.0" stroke="#e53935" stroke-width="1"/><rect x="422.1" y="147.0" width="7.0" height="1.4" fill="#e53935"/><line x1="438.4" y1="148.8" x2="438.4" y2="156.7" stroke="#212121" stroke-width="1"/><rect x="434.9" y="152.0" width="7.0" height="2.1" fill="#212121"/><line x1="451.2" y1="158.1" x2="451.2" y2="165.2" stroke="#e53935" stroke-width="1"/><rect x="447.7" y="161.3" width="7.0" height="1.4" fill="#e53935"/><line x1="464.0" y1="163.1" x2="464.0" y2="170.9" stroke="#212121" stroke-width="1"/><rect x="460.5" y="166.3" width="7.0" height="2.1" fill="#212121"/><line x1="476.8" y1="172.3" x2="476.8" y2="179.5" stroke="#e53935" stroke-width="1"/><rect x="473.3" y="175.5" width="7.0" height="1.4" fill="#e53935"/><line x1="489.6" y1="173.8" x2="489.6" y2="181.6" stroke="#212121" stroke-width="1"/><rect x="486.1" y="177.0" width="7.0" height="2.1" fill="#212121"/><line x1="502.4" y1="168.8" x2="502.4" y2="175.9" stroke="#e53935" stroke-width="1"/><rect x="498.9" y="172.0" width="7.0" height="1.4" fill="#e53935"/><line x1="515.2" y1="159.5" x2="515.2" y2="167.3" stroke="#212121" stroke-width="1"/><rect x="511.7" y="162.7" width="7.0" height="2.1" fill="#212121"/><line x1="528.0" y1="154.5" x2="528.0" y2="161.6" stroke="#e53935" stroke-width="1"/><rect x="524.5" y="157.7" width="7.0" height="1.4" fill="#e53935"/><line x1="540.8" y1="148.8" x2="540.8" y2="156.7" stroke="#212121" stroke-width="1"/><rect x="537.3" y="152.0" width="7.0" height="2.1" fill="#212121"/><line x1="553.6" y1="158.1" x2="553.6" y2="165.2" stroke="#e53935" stroke-width="1"/><rect x="550.1" y="161.3" width="7.0" height="1.4" fill="#e53935"/><line x1="566.4" y1="163.1" x2="566.4" y2="170.9" stroke="#212121" stroke-width="1"/><rect x="562.9" y="166.3" width="7.0" height="2.1" fill="#212121"/><line x1="579.2" y1="172.3" x2="579.2" y2="179.5" stroke="#e53935" stroke-width="1"/><rect x="575.7" y="175.5" width="7.0" height="1.4" fill="#e53935"/><line x1="592.0" y1="177.3" x2="592.0" y2="185.2" stroke="#212121" stroke-width="1"/><rect x="588.5" y="180.5" width="7.0" height="2.1" fill="#212121"/><line x1="604.8" y1="186.6" x2="604.8" y2="193.7" stroke="#e53935" stroke-width="1"/><rect x="601.3" y="189.8" width="7.0" height="1.4" fill="#e53935"/><line x1="617.6" y1="191.6" x2="617.6" y2="199.4" stroke="#212121" stroke-width="1"/><rect x="614.1" y="194.8" width="7.0" height="2.1" fill="#212121"/><text x="540.8" y="58" font-size="9" fill="#e53935" text-anchor="middle">反彈高 ~102</text><text x="617.6" y="58" font-size="9" fill="#e53935" text-anchor="middle">續跌</text><line x1="48" y1="209" x2="624" y2="209" stroke="#dddddd"/><polyline fill="none" stroke="#1565c0" stroke-width="1.5" points="374.4,164.8 387.2,164.7 400.0,165.0 412.8,163.9 425.6,162.3 438.4,160.3 451.2,158.0 464.0,155.5 476.8,152.9 489.6,150.9 502.4,151.2 515.2,153.5 528.0,157.2 540.8,161.3 553.6,163.9 566.4,165.1 579.2,165.2 592.0,164.6 604.8,163.3 617.6,161.5"/><polyline fill="none" stroke="#ff9800" stroke-width="1.5" points="156.8,210.2 169.6,210.2 182.4,210.2 195.2,210.2 208.0,210.2 220.8,210.2 233.6,210.2 246.4,210.2 259.2,210.2 272.0,210.2 284.8,210.2 297.6,210.2 310.4,210.2 323.2,210.2 336.0,210.2 348.8,210.2 361.6,210.2 374.4,201.1 387.2,193.8 400.0,188.1 412.8,183.2 425.6,179.1 438.4,175.3 451.2,171.8 464.0,168.6 476.8,165.5 489.6,162.5 502.4,160.3 515.2,158.9 528.0,158.6 540.8,159.1 553.6,160.1 566.4,161.1 579.2,161.9 592.0,162.4 604.8,162.6 617.6,162.4"/><line x1="48" y1="210.2" x2="624" y2="210.2" stroke="#666666" stroke-dasharray="4 3"/><text x="52" y="227" font-size="10" fill="#7b1fa2">零軸下方金叉 → 弱勢反彈（接盤風險）</text><text x="48" y="372" font-size="10" fill="#666666">合成教學數據 · 金叉須看零軸與均線環境</text></svg>