<svg xmlns="http://www.w3.org/2000/svg" viewBox="0 0 640 380" role="img" aria-label="法說籌碼背離案例"><title>法說籌碼背離案例</title><rect width="640" height="100%" fill="#ffffff"/><text x="48" y="22" font-size="14" font-weight="bold" fill="#212121">案例：法說樂觀 vs 法人賣超（合成數據）</text><text x="48" y="38" font-size="10" fill="#666666">G 公司 · 利多上漲後回落 · 法人連賣</text><line x1="105.6" y1="143.0" x2="105.6" y2="176.0" stroke="#e53935" stroke-width="1"/><rect x="73.9" y="154.0" width="63.4" height="11.0" fill="#e53935"/><line x1="220.8" y1="66.0" x2="220.8" y2="165.0" stroke="#e53935" stroke-width="1"/><rect x="189.1" y="88.0" width="63.4" height="66.0" fill="#e53935"/><line x1="336.0" y1="77.0" x2="336.0" y2="132.0" stroke="#212121" stroke-width="1"/><rect x="304.3" y="88.0" width="63.4" height="33.0" fill="#212121"/><line x1="451.2" y1="110.0" x2="451.2" y2="165.0" stroke="#212121" stroke-width="1"/><rect x="419.5" y="121.0" width="63.4" height="33.0" fill="#212121"/><line x1="566.4" y1="143.0" x2="566.4" y2="198.0" stroke="#212121" stroke-width="1"/><rect x="534.7" y="154.0" width="63.4" height="33.0" fill="#212121"/><line x1="48" y1="228" x2="624" y2="228" stroke="#dddddd"/><text x="52" y="242" font-size="10" fill="#00897b">法人累計買賣超（張 · 往下＝賣超）</text><rect x="76.8" y="248.0" width="57.6" height="0.0" fill="#00897b" opacity="0.7"/><text x="105.6" y="260.0" font-size="8" fill="#666666" text-anchor="middle">0</text><rect x="192.0" y="248.0" width="57.6" height="21.3" fill="#00897b" opacity="0.7"/><text x="220.8" y="281.3" font-size="8" fill="#666666" text-anchor="middle">-800</text><rect x="307.2" y="248.0" width="57.6" height="42.7" fill="#00897b" opacity="0.7"/><text x="336.0" y="302.7" font-size="8" fill="#666666" text-anchor="middle">-1600</text><rect x="422.4" y="248.0" width="57.6" height="61.3" fill="#00897b" opacity="0.7"/><text x="451.2" y="321.3" font-size="8" fill="#666666" text-anchor="middle">-2300</text><rect x="537.6" y="248.0" width="57.6" height="80.0" fill="#00897b" opacity="0.7"/><text x="566.4" y="340.0" font-size="8" fill="#666666" text-anchor="middle">-3000</text><text x="220.8" y="56" font-size="9" fill="#e53935" text-anchor="middle">法說 +3%</text><text x="48" y="372" font-size="10" fill="#666666">合成教學數據 · 籌碼行為 > 法說語氣</text></svg>