<svg xmlns="http://www.w3.org/2000/svg" viewBox="0 0 640 380" role="img" aria-label="假突破案例"><title>假突破案例</title><rect width="640" height="100%" fill="#ffffff"/><text x="48" y="22" font-size="14" font-weight="bold" fill="#212121">案例：突破缺口 → 假突破（合成數據）</text><text x="48" y="38" font-size="10" fill="#666666">整理 85～90 · D0 跳空 · D+2 回補缺口</text><line x1="61.1" y1="263.1" x2="61.1" y2="304.4" stroke="#212121" stroke-width="1"/><rect x="53.9" y="271.6" width="14.4" height="25.1" fill="#212121"/><line x1="87.3" y1="240.0" x2="87.3" y2="285.2" stroke="#e53935" stroke-width="1"/><rect x="80.1" y="252.1" width="14.4" height="20.3" fill="#e53935"/><line x1="113.5" y1="250.9" x2="113.5" y2="269.7" stroke="#212121" stroke-width="1"/><rect x="106.3" y="262.5" width="14.4" height="2.1" fill="#212121"/><line x1="139.6" y1="220.4" x2="139.6" y2="246.0" stroke="#e53935" stroke-width="1"/><rect x="132.4" y="230.9" width="14.4" height="4.3" fill="#e53935"/><line x1="165.8" y1="251.9" x2="165.8" y2="311.8" stroke="#212121" stroke-width="1"/><rect x="158.6" y="267.6" width="14.4" height="29.9" fill="#212121"/><line x1="192.0" y1="253.2" x2="192.0" y2="282.4" stroke="#212121" stroke-width="1"/><rect x="184.8" y="268.4" width="14.4" height="8.0" fill="#212121"/><line x1="218.2" y1="222.7" x2="218.2" y2="276.8" stroke="#e53935" stroke-width="1"/><rect x="211.0" y="235.7" width="14.4" height="25.3" fill="#e53935"/><line x1="244.4" y1="223.7" x2="244.4" y2="263.2" stroke="#212121" stroke-width="1"/><rect x="237.2" y="241.1" width="14.4" height="16.4" fill="#212121"/><line x1="270.5" y1="250.6" x2="270.5" y2="281.9" stroke="#212121" stroke-width="1"/><rect x="263.3" y="267.2" width="14.4" height="2.1" fill="#212121"/><line x1="296.7" y1="240.5" x2="296.7" y2="291.4" stroke="#e53935" stroke-width="1"/><rect x="289.5" y="255.8" width="14.4" height="17.4" fill="#e53935"/><line x1="322.9" y1="232.3" x2="322.9" y2="273.4" stroke="#212121" stroke-width="1"/><rect x="315.7" y="243.2" width="14.4" height="14.0" fill="#212121"/><line x1="349.1" y1="234.8" x2="349.1" y2="271.1" stroke="#212121" stroke-width="1"/><rect x="341.9" y="243.1" width="14.4" height="10.4" fill="#212121"/><line x1="375.3" y1="256.5" x2="375.3" y2="292.7" stroke="#e53935" stroke-width="1"/><rect x="368.1" y="268.5" width="14.4" height="16.1" fill="#e53935"/><line x1="401.5" y1="227.2" x2="401.5" y2="278.3" stroke="#e53935" stroke-width="1"/><rect x="394.3" y="240.6" width="14.4" height="25.4" fill="#e53935"/><line x1="427.6" y1="233.9" x2="427.6" y2="271.7" stroke="#e53935" stroke-width="1"/><rect x="420.4" y="239.3" width="14.4" height="16.4" fill="#e53935"/><line x1="453.8" y1="225.2" x2="453.8" y2="272.6" stroke="#212121" stroke-width="1"/><rect x="446.6" y="242.4" width="14.4" height="17.7" fill="#212121"/><line x1="480.0" y1="257.5" x2="480.0" y2="296.3" stroke="#e53935" stroke-width="1"/><rect x="472.8" y="267.6" width="14.4" height="11.5" fill="#e53935"/><line x1="506.2" y1="256.5" x2="506.2" y2="291.9" stroke="#212121" stroke-width="1"/><rect x="499.0" y="271.5" width="14.4" height="8.4" fill="#212121"/><line x1="532.4" y1="205.5" x2="532.4" y2="274.8" stroke="#212121" stroke-width="1"/><rect x="525.2" y="228.6" width="14.4" height="23.1" fill="#212121"/><line x1="558.5" y1="67.1" x2="558.5" y2="159.4" stroke="#e53935" stroke-width="1"/><rect x="551.3" y="90.2" width="14.4" height="46.2" fill="#e53935"/><line x1="584.7" y1="90.2" x2="584.7" y2="251.7" stroke="#212121" stroke-width="1"/><rect x="577.5" y="113.2" width="14.4" height="115.4" fill="#212121"/><line x1="610.9" y1="205.5" x2="610.9" y2="297.8" stroke="#212121" stroke-width="1"/><rect x="603.7" y="251.7" width="14.4" height="23.1" fill="#212121"/><rect x="48" y="159.4" width="576" height="46.2" fill="#e3f2fd" opacity="0.6"/><text x="52" y="155.4" font-size="9" fill="#1565c0">缺口 90～92</text><rect x="48" y="205.5" width="374.4" height="115.4" fill="none" stroke="#666666" stroke-dasharray="4 3"/><text x="100" y="334.9" font-size="9" fill="#666666">整理區</text><text x="558.5" y="56" font-size="9" fill="#e53935" text-anchor="middle">D0 跳空</text><text x="610.9" y="56" font-size="9" fill="#e53935" text-anchor="middle">回補</text><text x="48" y="372" font-size="10" fill="#666666">合成教學數據 · 突破需量+站穩</text></svg>