<svg xmlns="http://www.w3.org/2000/svg" viewBox="0 0 640 380" role="img" aria-label="鎚子均線案例"><title>鎚子均線案例</title><rect width="640" height="100%" fill="#ffffff"/><text x="48" y="22" font-size="14" font-weight="bold" fill="#212121">案例：低檔鎚子 + MA20（合成數據）</text><text x="48" y="38" font-size="10" fill="#666666">B 公司 · 支撐 98～100 · 最後一根紅K鎚子</text><line x1="60.5" y1="65.0" x2="60.5" y2="88.1" stroke="#212121" stroke-width="1"/><rect x="53.6" y="71.3" width="13.8" height="8.4" fill="#212121"/><line x1="85.6" y1="73.4" x2="85.6" y2="94.9" stroke="#212121" stroke-width="1"/><rect x="78.7" y="79.7" width="13.8" height="6.8" fill="#212121"/><line x1="110.6" y1="80.2" x2="110.6" y2="100.1" stroke="#212121" stroke-width="1"/><rect x="103.7" y="86.5" width="13.8" height="5.2" fill="#212121"/><line x1="135.7" y1="85.4" x2="135.7" y2="108.5" stroke="#212121" stroke-width="1"/><rect x="128.8" y="91.7" width="13.8" height="8.4" fill="#212121"/><line x1="160.7" y1="93.8" x2="160.7" y2="115.3" stroke="#212121" stroke-width="1"/><rect x="153.8" y="100.1" width="13.8" height="6.8" fill="#212121"/><line x1="185.7" y1="100.6" x2="185.7" y2="120.6" stroke="#212121" stroke-width="1"/><rect x="178.9" y="106.9" width="13.8" height="5.2" fill="#212121"/><line x1="210.8" y1="105.9" x2="210.8" y2="129.0" stroke="#212121" stroke-width="1"/><rect x="203.9" y="112.2" width="13.8" height="8.4" fill="#212121"/><line x1="235.8" y1="114.3" x2="235.8" y2="135.8" stroke="#212121" stroke-width="1"/><rect x="228.9" y="120.6" width="13.8" height="6.8" fill="#212121"/><line x1="260.9" y1="121.1" x2="260.9" y2="141.0" stroke="#212121" stroke-width="1"/><rect x="254.0" y="127.4" width="13.8" height="5.2" fill="#212121"/><line x1="285.9" y1="126.3" x2="285.9" y2="149.4" stroke="#212121" stroke-width="1"/><rect x="279.0" y="132.6" width="13.8" height="8.4" fill="#212121"/><line x1="311.0" y1="134.7" x2="311.0" y2="156.2" stroke="#212121" stroke-width="1"/><rect x="304.1" y="141.0" width="13.8" height="6.8" fill="#212121"/><line x1="336.0" y1="141.6" x2="336.0" y2="161.5" stroke="#212121" stroke-width="1"/><rect x="329.1" y="147.8" width="13.8" height="5.2" fill="#212121"/><line x1="361.0" y1="146.8" x2="361.0" y2="169.9" stroke="#212121" stroke-width="1"/><rect x="354.2" y="153.1" width="13.8" height="8.4" fill="#212121"/><line x1="386.1" y1="155.2" x2="386.1" y2="176.7" stroke="#212121" stroke-width="1"/><rect x="379.2" y="161.5" width="13.8" height="6.8" fill="#212121"/><line x1="411.1" y1="162.0" x2="411.1" y2="181.9" stroke="#212121" stroke-width="1"/><rect x="404.2" y="168.3" width="13.8" height="5.2" fill="#212121"/><line x1="436.2" y1="167.3" x2="436.2" y2="190.3" stroke="#212121" stroke-width="1"/><rect x="429.3" y="173.5" width="13.8" height="8.4" fill="#212121"/><line x1="461.2" y1="175.6" x2="461.2" y2="197.1" stroke="#212121" stroke-width="1"/><rect x="454.3" y="181.9" width="13.8" height="6.8" fill="#212121"/><line x1="486.3" y1="182.5" x2="486.3" y2="202.4" stroke="#212121" stroke-width="1"/><rect x="479.4" y="188.8" width="13.8" height="5.2" fill="#212121"/><line x1="511.3" y1="187.7" x2="511.3" y2="210.8" stroke="#212121" stroke-width="1"/><rect x="504.4" y="194.0" width="13.8" height="8.4" fill="#212121"/><line x1="536.3" y1="196.1" x2="536.3" y2="217.6" stroke="#212121" stroke-width="1"/><rect x="529.5" y="202.4" width="13.8" height="6.8" fill="#212121"/><line x1="561.4" y1="202.9" x2="561.4" y2="222.8" stroke="#212121" stroke-width="1"/><rect x="554.5" y="209.2" width="13.8" height="5.2" fill="#212121"/><line x1="586.4" y1="208.2" x2="586.4" y2="231.2" stroke="#212121" stroke-width="1"/><rect x="579.5" y="214.5" width="13.8" height="8.4" fill="#212121"/><line x1="611.5" y1="260.1" x2="611.5" y2="323.0" stroke="#e53935" stroke-width="1"/><rect x="604.6" y="265.3" width="13.8" height="5.2" fill="#e53935"/><polyline fill="none" stroke="#1565c0" stroke-width="1.5" points="536.3,144.0 561.4,150.7 586.4,157.5 611.5,166.2"/><rect x="48" y="281.1" width="576" height="21.0" fill="#fff3e0" opacity="0.5"/><text x="52" y="277.1" font-size="9" fill="#ff9800">支撐區 98～100</text><text x="611" y="56" font-size="10" fill="#e53935" text-anchor="middle">鎚子</text><text x="48" y="372" font-size="10" fill="#666666">合成教學數據 · 非真實個股</text></svg>