<svg xmlns="http://www.w3.org/2000/svg" viewBox="0 0 640 360" role="img" aria-label="類股漲跌排行"><title>類股漲跌排行</title><rect width="640" height="100%" fill="#ffffff"/><text x="48" y="22" font-size="14" font-weight="bold" fill="#212121">類股漲跌排行（教學示意）</text><text x="48" y="38" font-size="10" fill="#666666">今日資金流向哪個類股</text><text x="112" y="88.8" font-size="11" fill="#666666" text-anchor="end">半導體</text><rect x="318.0" y="72.3" width="205.3" height="25.0" fill="#e53935" opacity="0.8"/><text x="527.3" y="88.8" font-size="10" fill="#e53935">+2.8%</text><text x="112" y="130.5" font-size="11" fill="#666666" text-anchor="end">金融</text><rect x="318.0" y="114.0" width="88.0" height="25.0" fill="#e53935" opacity="0.8"/><text x="410.0" y="130.5" font-size="10" fill="#e53935">+1.2%</text><text x="112" y="172.2" font-size="11" fill="#666666" text-anchor="end">航運</text><rect x="318.0" y="155.7" width="29.3" height="25.0" fill="#e53935" opacity="0.8"/><text x="351.3" y="172.2" font-size="10" fill="#e53935">+0.4%</text><text x="112" y="213.8" font-size="11" fill="#666666" text-anchor="end">生技</text><rect x="274.0" y="197.3" width="44.0" height="25.0" fill="#00897b" opacity="0.8"/><text x="270.0" y="213.8" font-size="10" fill="#00897b" text-anchor="end">-0.6%</text><text x="112" y="255.5" font-size="11" fill="#666666" text-anchor="end">傳產</text><rect x="237.3" y="239.0" width="80.7" height="25.0" fill="#00897b" opacity="0.8"/><text x="233.3" y="255.5" font-size="10" fill="#00897b" text-anchor="end">-1.1%</text><text x="112" y="297.2" font-size="11" fill="#666666" text-anchor="end">觀光</text><rect x="149.3" y="280.7" width="168.7" height="25.0" fill="#00897b" opacity="0.8"/><text x="145.3" y="297.2" font-size="10" fill="#00897b" text-anchor="end">-2.3%</text><line x1="318.0" y1="64" x2="318.0" y2="314" stroke="#dddddd"/><text x="48" y="352" font-size="10" fill="#666666">教學示意 · 紅漲綠跌 · 先看類股再選股</text></svg>