<svg xmlns="http://www.w3.org/2000/svg" viewBox="0 0 640 320" role="img" aria-label="0050 元大台灣50 日K"><title>0050 元大台灣50 日K</title><rect width="640" height="320" fill="#ffffff"/><text x="48" y="22" font-size="14" font-weight="bold" fill="#212121">0050 元大台灣50 — 日 K（近 30 個交易日，TWSE）</text><line x1="48" y1="280" x2="624" y2="280" stroke="#dddddd"/><line x1="48" y1="280.0" x2="624" y2="280.0" stroke="#eeeeee"/><text x="42" y="284.0" font-size="10" text-anchor="end" fill="#666666">92</text><line x1="48" y1="219.0" x2="624" y2="219.0" stroke="#eeeeee"/><text x="42" y="223.0" font-size="10" text-anchor="end" fill="#666666">96</text><line x1="48" y1="158.0" x2="624" y2="158.0" stroke="#eeeeee"/><text x="42" y="162.0" font-size="10" text-anchor="end" fill="#666666">100</text><line x1="48" y1="97.0" x2="624" y2="97.0" stroke="#eeeeee"/><text x="42" y="101.0" font-size="10" text-anchor="end" fill="#666666">104</text><line x1="48" y1="36.0" x2="624" y2="36.0" stroke="#eeeeee"/><text x="42" y="40.0" font-size="10" text-anchor="end" fill="#666666">108</text><line x1="57.6" y1="74.7" x2="57.6" y2="117.3" stroke="#e53935" stroke-width="1"/><rect x="52.3" y="74.7" width="10.6" height="34.7" fill="#e53935"/><line x1="76.8" y1="92.9" x2="76.8" y2="158.4" stroke="#212121" stroke-width="1"/><rect x="71.5" y="96.8" width="10.6" height="55.3" fill="#212121"/><line x1="96.0" y1="98.4" x2="96.0" y2="128.4" stroke="#e53935" stroke-width="1"/><rect x="90.7" y="119.7" width="10.6" height="2.4" fill="#e53935"/><line x1="115.2" y1="131.5" x2="115.2" y2="158.4" stroke="#212121" stroke-width="1"/><rect x="109.9" y="134.7" width="10.6" height="23.7" fill="#212121"/><line x1="134.4" y1="144.2" x2="134.4" y2="167.1" stroke="#e53935" stroke-width="1"/><rect x="129.1" y="147.3" width="10.6" height="19.7" fill="#e53935"/><line x1="153.6" y1="202.6" x2="153.6" y2="223.1" stroke="#e53935" stroke-width="1"/><rect x="148.3" y="202.6" width="10.6" height="15.8" fill="#e53935"/><line x1="172.8" y1="222.4" x2="172.8" y2="243.7" stroke="#e53935" stroke-width="1"/><rect x="167.5" y="225.5" width="10.6" height="16.6" fill="#e53935"/><line x1="192.0" y1="262.6" x2="192.0" y2="279.2" stroke="#212121" stroke-width="1"/><rect x="186.7" y="270.5" width="10.6" height="7.9" fill="#212121"/><line x1="211.2" y1="243.7" x2="211.2" y2="268.9" stroke="#212121" stroke-width="1"/><rect x="205.9" y="249.2" width="10.6" height="19.7" fill="#212121"/><line x1="230.4" y1="235.8" x2="230.4" y2="265.8" stroke="#e53935" stroke-width="1"/><rect x="225.1" y="240.5" width="10.6" height="14.2" fill="#e53935"/><line x1="249.6" y1="187.6" x2="249.6" y2="235.8" stroke="#212121" stroke-width="1"/><rect x="244.3" y="197.1" width="10.6" height="35.5" fill="#212121"/><line x1="268.8" y1="204.2" x2="268.8" y2="227.1" stroke="#212121" stroke-width="1"/><rect x="263.5" y="208.9" width="10.6" height="13.4" fill="#212121"/><line x1="288.0" y1="226.3" x2="288.0" y2="243.7" stroke="#e53935" stroke-width="1"/><rect x="282.7" y="231.0" width="10.6" height="10.3" fill="#e53935"/><line x1="307.2" y1="201.8" x2="307.2" y2="231.0" stroke="#e53935" stroke-width="1"/><rect x="301.9" y="209.7" width="10.6" height="1.0" fill="#e53935"/><line x1="326.4" y1="205.0" x2="326.4" y2="215.2" stroke="#e53935" stroke-width="1"/><rect x="321.1" y="208.9" width="10.6" height="3.9" fill="#e53935"/><line x1="345.6" y1="196.3" x2="345.6" y2="225.5" stroke="#212121" stroke-width="1"/><rect x="340.3" y="201.8" width="10.6" height="5.5" fill="#212121"/><line x1="364.8" y1="185.2" x2="364.8" y2="201.0" stroke="#212121" stroke-width="1"/><rect x="359.5" y="192.3" width="10.6" height="3.9" fill="#212121"/><line x1="384.0" y1="208.9" x2="384.0" y2="243.7" stroke="#212121" stroke-width="1"/><rect x="378.7" y="222.4" width="10.6" height="4.7" fill="#212121"/><line x1="403.2" y1="242.9" x2="403.2" y2="254.7" stroke="#e53935" stroke-width="1"/><rect x="397.9" y="245.3" width="10.6" height="3.2" fill="#e53935"/><line x1="422.4" y1="244.5" x2="422.4" y2="280.0" stroke="#e53935" stroke-width="1"/><rect x="417.1" y="245.3" width="10.6" height="33.2" fill="#e53935"/><line x1="441.6" y1="100.8" x2="441.6" y2="135.5" stroke="#212121" stroke-width="1"/><rect x="436.3" y="108.6" width="10.6" height="20.5" fill="#212121"/><line x1="460.8" y1="151.3" x2="460.8" y2="197.9" stroke="#212121" stroke-width="1"/><rect x="455.5" y="160.0" width="10.6" height="2.4" fill="#212121"/><line x1="480.0" y1="113.4" x2="480.0" y2="156.8" stroke="#212121" stroke-width="1"/><rect x="474.7" y="118.9" width="10.6" height="37.1" fill="#212121"/><line x1="499.2" y1="103.1" x2="499.2" y2="138.7" stroke="#e53935" stroke-width="1"/><rect x="493.9" y="104.7" width="10.6" height="22.1" fill="#e53935"/><line x1="518.4" y1="139.4" x2="518.4" y2="190.8" stroke="#e53935" stroke-width="1"/><rect x="513.1" y="145.0" width="10.6" height="45.8" fill="#e53935"/><line x1="537.6" y1="75.5" x2="537.6" y2="115.8" stroke="#212121" stroke-width="1"/><rect x="532.3" y="81.0" width="10.6" height="13.4" fill="#212121"/><line x1="556.8" y1="49.4" x2="556.8" y2="64.4" stroke="#212121" stroke-width="1"/><rect x="551.5" y="53.4" width="10.6" height="10.3" fill="#212121"/><line x1="576.0" y1="36.0" x2="576.0" y2="47.8" stroke="#e53935" stroke-width="1"/><rect x="570.7" y="39.9" width="10.6" height="4.7" fill="#e53935"/><line x1="595.2" y1="60.5" x2="595.2" y2="93.6" stroke="#212121" stroke-width="1"/><rect x="589.9" y="60.5" width="10.6" height="9.5" fill="#212121"/><line x1="614.4" y1="54.2" x2="614.4" y2="88.9" stroke="#e53935" stroke-width="1"/><rect x="609.1" y="73.1" width="10.6" height="3.9" fill="#e53935"/><text x="624" y="22" font-size="12" text-anchor="end" fill="#00897b">收 105.50  (-0.20, -0.19%)</text><text x="48" y="312" font-size="10" fill="#666666">資料：TWSE 日行情 · 教學用 · 非即時</text></svg>