<svg xmlns="http://www.w3.org/2000/svg" viewBox="0 0 640 280" role="img" aria-label="0050 分時示意"><title>0050 分時示意</title><rect width="640" height="280" fill="#ffffff"/><text x="48" y="22" font-size="14" font-weight="bold" fill="#212121">0050 元大台灣50 — 分時走勢（教學示意）</text><line x1="48" y1="143.4" x2="624" y2="143.4" stroke="#999" stroke-dasharray="4 3"/><text x="624" y="139.4" font-size="9" text-anchor="end" fill="#666666">昨收 106</text><polyline fill="none" stroke="#e53935" stroke-width="2" points="48.0,244.0 70.2,109.8 92.3,59.5 114.5,126.6 136.6,176.9 158.8,193.7 180.9,160.1 203.1,143.4 225.2,170.2 247.4,183.6 269.5,203.7 291.7,217.2 313.8,227.2 336.0,210.5 358.2,193.7 380.3,176.9 402.5,150.1 424.6,126.6 446.8,103.1 468.9,116.5 491.1,93.0 513.2,69.5 535.4,83.0 557.5,59.5 579.7,42.7 601.8,49.4 624.0,36.0"/><polyline fill="none" stroke="#ff9800" stroke-width="1.5" stroke-dasharray="5 3" points="48.0,244.0 70.2,176.9 92.3,137.8 114.5,135.0 136.6,143.4 158.8,151.7 180.9,152.9 203.1,151.7 225.2,153.8 247.4,156.8 269.5,161.0 291.7,165.7 313.8,170.5 336.0,173.3 358.2,174.7 380.3,174.8 402.5,173.4 424.6,170.8 446.8,167.2 468.9,164.7 491.1,161.2 513.2,157.1 535.4,153.9 557.5,149.9 579.7,145.6 601.8,141.9 624.0,138.0"/><text x="52" y="50" font-size="10" fill="#e53935">■ 成交價</text><text x="132" y="50" font-size="10" fill="#ff9800">- - 均價</text><text x="48" y="270" font-size="10" fill="#666666">09:00 ─────────────── 13:30（非即時 tick 重播）</text></svg>