<svg xmlns="http://www.w3.org/2000/svg" viewBox="0 0 640 120" role="img" aria-label="0050 量柱"><title>0050 量柱</title><rect width="640" height="120" fill="#ffffff"/><text x="48" y="16" font-size="12" font-weight="bold" fill="#212121">0050 成交量（近 30 日）</text><rect x="51.8" y="82.0" width="11.5" height="14.0" fill="#e53935" opacity="0.85"/><rect x="71.0" y="75.0" width="11.5" height="21.0" fill="#212121" opacity="0.85"/><rect x="90.2" y="83.0" width="11.5" height="13.0" fill="#e53935" opacity="0.85"/><rect x="109.4" y="83.2" width="11.5" height="12.8" fill="#212121" opacity="0.85"/><rect x="128.6" y="78.2" width="11.5" height="17.8" fill="#e53935" opacity="0.85"/><rect x="147.8" y="87.2" width="11.5" height="8.8" fill="#e53935" opacity="0.85"/><rect x="167.0" y="87.5" width="11.5" height="8.5" fill="#e53935" opacity="0.85"/><rect x="186.2" y="79.3" width="11.5" height="16.7" fill="#212121" opacity="0.85"/><rect x="205.4" y="77.4" width="11.5" height="18.6" fill="#212121" opacity="0.85"/><rect x="224.6" y="79.7" width="11.5" height="16.3" fill="#e53935" opacity="0.85"/><rect x="243.8" y="82.5" width="11.5" height="13.5" fill="#212121" opacity="0.85"/><rect x="263.0" y="88.2" width="11.5" height="7.8" fill="#212121" opacity="0.85"/><rect x="282.2" y="78.1" width="11.5" height="17.9" fill="#e53935" opacity="0.85"/><rect x="301.4" y="82.0" width="11.5" height="14.0" fill="#e53935" opacity="0.85"/><rect x="320.6" y="82.7" width="11.5" height="13.3" fill="#e53935" opacity="0.85"/><rect x="339.8" y="78.0" width="11.5" height="18.0" fill="#212121" opacity="0.85"/><rect x="359.0" y="79.9" width="11.5" height="16.1" fill="#212121" opacity="0.85"/><rect x="378.2" y="80.7" width="11.5" height="15.3" fill="#212121" opacity="0.85"/><rect x="397.4" y="84.6" width="11.5" height="11.4" fill="#e53935" opacity="0.85"/><rect x="416.6" y="78.8" width="11.5" height="17.2" fill="#e53935" opacity="0.85"/><rect x="435.8" y="85.5" width="11.5" height="10.5" fill="#212121" opacity="0.85"/><rect x="455.0" y="55.0" width="11.5" height="41.0" fill="#212121" opacity="0.85"/><rect x="474.2" y="69.5" width="11.5" height="26.5" fill="#212121" opacity="0.85"/><rect x="493.4" y="62.3" width="11.5" height="33.7" fill="#e53935" opacity="0.85"/><rect x="512.6" y="24.0" width="11.5" height="72.0" fill="#e53935" opacity="0.85"/><rect x="531.8" y="49.8" width="11.5" height="46.2" fill="#212121" opacity="0.85"/><rect x="551.0" y="63.5" width="11.5" height="32.5" fill="#212121" opacity="0.85"/><rect x="570.2" y="85.1" width="11.5" height="10.9" fill="#e53935" opacity="0.85"/><rect x="589.4" y="79.9" width="11.5" height="16.1" fill="#212121" opacity="0.85"/><rect x="608.6" y="77.4" width="11.5" height="18.6" fill="#e53935" opacity="0.85"/><line x1="48" y1="96" x2="624" y2="96" stroke="#dddddd"/></svg>